<svg width="273" height="157" viewBox="0 0 273 157" fill="none" xmlns="http://www.w3.org/2000/svg">
<path d="M117.689 110.447C117.157 111.987 116.646 113.415 116.156 114.731C115.68 116.033 115.211 117.272 114.749 118.448C114.287 119.624 113.825 120.751 113.363 121.829C112.915 122.893 112.453 123.95 111.977 125H110.066C109.59 123.95 109.121 122.893 108.659 121.829C108.211 120.751 107.749 119.624 107.273 118.448C106.811 117.272 106.335 116.033 105.845 114.731C105.355 113.415 104.851 111.987 104.333 110.447H106.58C107.336 112.659 108.078 114.787 108.806 116.831C109.534 118.875 110.283 120.793 111.053 122.585C111.823 120.807 112.572 118.896 113.3 116.852C114.028 114.794 114.763 112.659 115.505 110.447H117.689ZM118.031 119.561C118.031 118.595 118.171 117.755 118.451 117.041C118.731 116.313 119.102 115.711 119.564 115.235C120.026 114.759 120.558 114.402 121.16 114.164C121.762 113.926 122.378 113.807 123.008 113.807C124.478 113.807 125.605 114.269 126.389 115.193C127.173 116.103 127.565 117.496 127.565 119.372C127.565 119.456 127.565 119.568 127.565 119.708C127.565 119.834 127.558 119.953 127.544 120.065H120.068C120.152 121.199 120.481 122.06 121.055 122.648C121.629 123.236 122.525 123.53 123.743 123.53C124.429 123.53 125.003 123.474 125.465 123.362C125.941 123.236 126.298 123.117 126.536 123.005L126.809 124.643C126.571 124.769 126.151 124.902 125.549 125.042C124.961 125.182 124.289 125.252 123.533 125.252C122.581 125.252 121.755 125.112 121.055 124.832C120.369 124.538 119.802 124.139 119.354 123.635C118.906 123.131 118.57 122.536 118.346 121.85C118.136 121.15 118.031 120.387 118.031 119.561ZM125.528 118.49C125.542 117.608 125.318 116.887 124.856 116.327C124.408 115.753 123.785 115.466 122.987 115.466C122.539 115.466 122.14 115.557 121.79 115.739C121.454 115.907 121.167 116.131 120.929 116.411C120.691 116.691 120.502 117.013 120.362 117.377C120.236 117.741 120.152 118.112 120.11 118.49H125.528ZM130.371 114.395C130.819 114.283 131.414 114.164 132.156 114.038C132.898 113.912 133.752 113.849 134.718 113.849C135.586 113.849 136.307 113.975 136.881 114.227C137.455 114.465 137.91 114.808 138.246 115.256C138.596 115.69 138.841 116.215 138.981 116.831C139.121 117.447 139.191 118.126 139.191 118.868V125H137.238V119.288C137.238 118.616 137.189 118.042 137.091 117.566C137.007 117.09 136.86 116.705 136.65 116.411C136.44 116.117 136.16 115.907 135.81 115.781C135.46 115.641 135.026 115.571 134.508 115.571C134.298 115.571 134.081 115.578 133.857 115.592C133.633 115.606 133.416 115.627 133.206 115.655C133.01 115.669 132.828 115.69 132.66 115.718C132.506 115.746 132.394 115.767 132.324 115.781V125H130.371V114.395ZM149.486 116.39C149.248 116.194 148.905 116.005 148.457 115.823C148.009 115.641 147.519 115.55 146.987 115.55C146.427 115.55 145.944 115.655 145.538 115.865C145.146 116.061 144.824 116.341 144.572 116.705C144.32 117.055 144.138 117.475 144.026 117.965C143.914 118.455 143.858 118.98 143.858 119.54C143.858 120.814 144.173 121.801 144.803 122.501C145.433 123.187 146.273 123.53 147.323 123.53C147.855 123.53 148.296 123.509 148.646 123.467C149.01 123.411 149.29 123.355 149.486 123.299V116.39ZM149.486 109.04L151.439 108.704V124.685C150.991 124.811 150.417 124.937 149.717 125.063C149.017 125.189 148.212 125.252 147.302 125.252C146.462 125.252 145.706 125.119 145.034 124.853C144.362 124.587 143.788 124.209 143.312 123.719C142.836 123.229 142.465 122.634 142.199 121.934C141.947 121.22 141.821 120.422 141.821 119.54C141.821 118.7 141.926 117.93 142.136 117.23C142.36 116.53 142.682 115.928 143.102 115.424C143.522 114.92 144.033 114.528 144.635 114.248C145.251 113.968 145.951 113.828 146.735 113.828C147.365 113.828 147.918 113.912 148.394 114.08C148.884 114.248 149.248 114.409 149.486 114.563V109.04ZM158.492 123.593C158.954 123.593 159.36 123.586 159.71 123.572C160.074 123.544 160.375 123.502 160.613 123.446V120.191C160.473 120.121 160.242 120.065 159.92 120.023C159.612 119.967 159.234 119.939 158.786 119.939C158.492 119.939 158.177 119.96 157.841 120.002C157.519 120.044 157.218 120.135 156.938 120.275C156.672 120.401 156.448 120.583 156.266 120.821C156.084 121.045 155.993 121.346 155.993 121.724C155.993 122.424 156.217 122.914 156.665 123.194C157.113 123.46 157.722 123.593 158.492 123.593ZM158.324 113.807C159.108 113.807 159.766 113.912 160.298 114.122C160.844 114.318 161.278 114.605 161.6 114.983C161.936 115.347 162.174 115.788 162.314 116.306C162.454 116.81 162.524 117.37 162.524 117.986V124.811C162.356 124.839 162.118 124.881 161.81 124.937C161.516 124.979 161.18 125.021 160.802 125.063C160.424 125.105 160.011 125.14 159.563 125.168C159.129 125.21 158.695 125.231 158.261 125.231C157.645 125.231 157.078 125.168 156.56 125.042C156.042 124.916 155.594 124.72 155.216 124.454C154.838 124.174 154.544 123.81 154.334 123.362C154.124 122.914 154.019 122.375 154.019 121.745C154.019 121.143 154.138 120.625 154.376 120.191C154.628 119.757 154.964 119.407 155.384 119.141C155.804 118.875 156.294 118.679 156.854 118.553C157.414 118.427 158.002 118.364 158.618 118.364C158.814 118.364 159.017 118.378 159.227 118.406C159.437 118.42 159.633 118.448 159.815 118.49C160.011 118.518 160.179 118.546 160.319 118.574C160.459 118.602 160.557 118.623 160.613 118.637V118.091C160.613 117.769 160.578 117.454 160.508 117.146C160.438 116.824 160.312 116.544 160.13 116.306C159.948 116.054 159.696 115.858 159.374 115.718C159.066 115.564 158.66 115.487 158.156 115.487C157.512 115.487 156.945 115.536 156.455 115.634C155.979 115.718 155.622 115.809 155.384 115.907L155.153 114.29C155.405 114.178 155.825 114.073 156.413 113.975C157.001 113.863 157.638 113.807 158.324 113.807ZM177.684 116.39C177.446 116.194 177.103 116.005 176.655 115.823C176.207 115.641 175.717 115.55 175.185 115.55C174.625 115.55 174.142 115.655 173.736 115.865C173.344 116.061 173.022 116.341 172.77 116.705C172.518 117.055 172.336 117.475 172.224 117.965C172.112 118.455 172.056 118.98 172.056 119.54C172.056 120.814 172.371 121.801 173.001 122.501C173.631 123.187 174.471 123.53 175.521 123.53C176.053 123.53 176.494 123.509 176.844 123.467C177.208 123.411 177.488 123.355 177.684 123.299V116.39ZM177.684 109.04L179.637 108.704V124.685C179.189 124.811 178.615 124.937 177.915 125.063C177.215 125.189 176.41 125.252 175.5 125.252C174.66 125.252 173.904 125.119 173.232 124.853C172.56 124.587 171.986 124.209 171.51 123.719C171.034 123.229 170.663 122.634 170.397 121.934C170.145 121.22 170.019 120.422 170.019 119.54C170.019 118.7 170.124 117.93 170.334 117.23C170.558 116.53 170.88 115.928 171.3 115.424C171.72 114.92 172.231 114.528 172.833 114.248C173.449 113.968 174.149 113.828 174.933 113.828C175.563 113.828 176.116 113.912 176.592 114.08C177.082 114.248 177.446 114.409 177.684 114.563V109.04ZM184.947 125H182.994V114.08H184.947V125ZM183.96 112.106C183.61 112.106 183.309 111.994 183.057 111.77C182.819 111.532 182.7 111.217 182.7 110.825C182.7 110.433 182.819 110.125 183.057 109.901C183.309 109.663 183.61 109.544 183.96 109.544C184.31 109.544 184.604 109.663 184.842 109.901C185.094 110.125 185.22 110.433 185.22 110.825C185.22 111.217 185.094 111.532 184.842 111.77C184.604 111.994 184.31 112.106 183.96 112.106ZM192.337 113.849C192.505 113.849 192.694 113.863 192.904 113.891C193.128 113.905 193.345 113.933 193.555 113.975C193.765 114.003 193.954 114.038 194.122 114.08C194.304 114.108 194.437 114.136 194.521 114.164L194.185 115.865C194.031 115.809 193.772 115.746 193.408 115.676C193.058 115.592 192.603 115.55 192.043 115.55C191.679 115.55 191.315 115.592 190.951 115.676C190.601 115.746 190.37 115.795 190.258 115.823V125H188.305V114.542C188.767 114.374 189.341 114.22 190.027 114.08C190.713 113.926 191.483 113.849 192.337 113.849ZM195.797 119.561C195.797 118.595 195.937 117.755 196.217 117.041C196.497 116.313 196.868 115.711 197.33 115.235C197.792 114.759 198.324 114.402 198.926 114.164C199.528 113.926 200.144 113.807 200.774 113.807C202.244 113.807 203.371 114.269 204.155 115.193C204.939 116.103 205.331 117.496 205.331 119.372C205.331 119.456 205.331 119.568 205.331 119.708C205.331 119.834 205.324 119.953 205.31 120.065H197.834C197.918 121.199 198.247 122.06 198.821 122.648C199.395 123.236 200.291 123.53 201.509 123.53C202.195 123.53 202.769 123.474 203.231 123.362C203.707 123.236 204.064 123.117 204.302 123.005L204.575 124.643C204.337 124.769 203.917 124.902 203.315 125.042C202.727 125.182 202.055 125.252 201.299 125.252C200.347 125.252 199.521 125.112 198.821 124.832C198.135 124.538 197.568 124.139 197.12 123.635C196.672 123.131 196.336 122.536 196.112 121.85C195.902 121.15 195.797 120.387 195.797 119.561ZM203.294 118.49C203.308 117.608 203.084 116.887 202.622 116.327C202.174 115.753 201.551 115.466 200.753 115.466C200.305 115.466 199.906 115.557 199.556 115.739C199.22 115.907 198.933 116.131 198.695 116.411C198.457 116.691 198.268 117.013 198.128 117.377C198.002 117.741 197.918 118.112 197.876 118.49H203.294ZM209.964 114.08H214.101V115.718H209.964V120.758C209.964 121.304 210.006 121.759 210.09 122.123C210.174 122.473 210.3 122.753 210.468 122.963C210.636 123.159 210.846 123.299 211.098 123.383C211.35 123.467 211.644 123.509 211.98 123.509C212.568 123.509 213.037 123.446 213.387 123.32C213.751 123.18 214.003 123.082 214.143 123.026L214.521 124.643C214.325 124.741 213.982 124.86 213.492 125C213.002 125.154 212.442 125.231 211.812 125.231C211.07 125.231 210.454 125.14 209.964 124.958C209.488 124.762 209.103 124.475 208.809 124.097C208.515 123.719 208.305 123.257 208.179 122.711C208.067 122.151 208.011 121.507 208.011 120.779V111.035L209.964 110.699V114.08ZM220.282 123.593C220.744 123.593 221.15 123.586 221.5 123.572C221.864 123.544 222.165 123.502 222.403 123.446V120.191C222.263 120.121 222.032 120.065 221.71 120.023C221.402 119.967 221.024 119.939 220.576 119.939C220.282 119.939 219.967 119.96 219.631 120.002C219.309 120.044 219.008 120.135 218.728 120.275C218.462 120.401 218.238 120.583 218.056 120.821C217.874 121.045 217.783 121.346 217.783 121.724C217.783 122.424 218.007 122.914 218.455 123.194C218.903 123.46 219.512 123.593 220.282 123.593ZM220.114 113.807C220.898 113.807 221.556 113.912 222.088 114.122C222.634 114.318 223.068 114.605 223.39 114.983C223.726 115.347 223.964 115.788 224.104 116.306C224.244 116.81 224.314 117.37 224.314 117.986V124.811C224.146 124.839 223.908 124.881 223.6 124.937C223.306 124.979 222.97 125.021 222.592 125.063C222.214 125.105 221.801 125.14 221.353 125.168C220.919 125.21 220.485 125.231 220.051 125.231C219.435 125.231 218.868 125.168 218.35 125.042C217.832 124.916 217.384 124.72 217.006 124.454C216.628 124.174 216.334 123.81 216.124 123.362C215.914 122.914 215.809 122.375 215.809 121.745C215.809 121.143 215.928 120.625 216.166 120.191C216.418 119.757 216.754 119.407 217.174 119.141C217.594 118.875 218.084 118.679 218.644 118.553C219.204 118.427 219.792 118.364 220.408 118.364C220.604 118.364 220.807 118.378 221.017 118.406C221.227 118.42 221.423 118.448 221.605 118.49C221.801 118.518 221.969 118.546 222.109 118.574C222.249 118.602 222.347 118.623 222.403 118.637V118.091C222.403 117.769 222.368 117.454 222.298 117.146C222.228 116.824 222.102 116.544 221.92 116.306C221.738 116.054 221.486 115.858 221.164 115.718C220.856 115.564 220.45 115.487 219.946 115.487C219.302 115.487 218.735 115.536 218.245 115.634C217.769 115.718 217.412 115.809 217.174 115.907L216.943 114.29C217.195 114.178 217.615 114.073 218.203 113.975C218.791 113.863 219.428 113.807 220.114 113.807Z" fill="#484848"/>
<path d="M2.62422 32.978C2.62422 29.962 3.15289 27.6393 4.21022 26.01C5.28489 24.3807 6.76689 23.566 8.65622 23.566C10.5456 23.566 12.0189 24.3807 13.0762 26.01C14.1509 27.6393 14.6882 29.962 14.6882 32.978C14.6882 35.994 14.1509 38.3167 13.0762 39.946C12.0189 41.5753 10.5456 42.39 8.65622 42.39C6.76689 42.39 5.28489 41.5753 4.21022 39.946C3.15289 38.3167 2.62422 35.994 2.62422 32.978ZM12.1402 32.978C12.1402 31.99 12.0796 31.054 11.9582 30.17C11.8542 29.286 11.6636 28.5147 11.3862 27.856C11.1262 27.1973 10.7709 26.6773 10.3202 26.296C9.86955 25.8973 9.31489 25.698 8.65622 25.698C7.99755 25.698 7.44289 25.8973 6.99222 26.296C6.54155 26.6773 6.17755 27.1973 5.90022 27.856C5.64022 28.5147 5.44955 29.286 5.32822 30.17C5.22422 31.054 5.17222 31.99 5.17222 32.978C5.17222 33.966 5.22422 34.902 5.32822 35.786C5.44955 36.67 5.64022 37.4413 5.90022 38.1C6.17755 38.7587 6.54155 39.2873 6.99222 39.686C7.44289 40.0673 7.99755 40.258 8.65622 40.258C9.31489 40.258 9.86955 40.0673 10.3202 39.686C10.7709 39.2873 11.1262 38.7587 11.3862 38.1C11.6636 37.4413 11.8542 36.67 11.9582 35.786C12.0796 34.902 12.1402 33.966 12.1402 32.978ZM18.418 27.7C19.406 27.3187 20.368 26.8333 21.304 26.244C22.24 25.6373 23.098 24.8833 23.878 23.982H25.594V42H23.176V27.336C22.968 27.5267 22.708 27.726 22.396 27.934C22.1013 28.142 21.772 28.3413 21.408 28.532C21.0613 28.7227 20.6887 28.9047 20.29 29.078C19.9087 29.2513 19.536 29.3987 19.172 29.52L18.418 27.7Z" fill="#484848"/>
<path d="M149 9.84375V1.96875H191V61.0312H149V53.1562" stroke="#E1251B" stroke-width="2" stroke-miterlimit="10"/>
<path d="M137 37.4062H157V47.25L181 31.5L157 15.75V25.5938H137" stroke="#E1251B" stroke-width="2" stroke-miterlimit="10"/>
<path d="M39 32H94" stroke="#E1251B"/>
</svg>
