<svg width="278" height="157" viewBox="0 0 278 157" fill="none" xmlns="http://www.w3.org/2000/svg">
<path d="M158.062 34.2003C162.067 34.2003 165.312 30.9767 165.312 27.0003C165.312 23.0238 162.067 19.8003 158.062 19.8003C154.058 19.8003 150.812 23.0238 150.812 27.0003C150.812 30.9767 154.058 34.2003 158.062 34.2003Z" stroke="#E1251B" stroke-width="2" stroke-miterlimit="10"/>
<path d="M197.938 16.2003C201.942 16.2003 205.188 12.9767 205.188 9.00029C205.188 5.02384 201.942 1.80029 197.938 1.80029C193.933 1.80029 190.688 5.02384 190.688 9.00029C190.688 12.9767 193.933 16.2003 197.938 16.2003Z" stroke="#E1251B" stroke-width="2" stroke-miterlimit="10"/>
<path d="M197.938 52.2003C201.942 52.2003 205.188 48.9767 205.188 45.0003C205.188 41.0238 201.942 37.8003 197.938 37.8003C193.933 37.8003 190.688 41.0238 190.688 45.0003C190.688 48.9767 193.933 52.2003 197.938 52.2003Z" stroke="#E1251B" stroke-width="2" stroke-miterlimit="10"/>
<path d="M170.75 21.6004L185.25 14.4004" stroke="#E1251B" stroke-width="2" stroke-miterlimit="10"/>
<path d="M170.75 32.4004L185.25 39.6004" stroke="#E1251B" stroke-width="2" stroke-miterlimit="10"/>
<path d="M1.62422 33.978C1.62422 30.962 2.15289 28.6393 3.21022 27.01C4.28489 25.3807 5.76689 24.566 7.65622 24.566C9.54555 24.566 11.0189 25.3807 12.0762 27.01C13.1509 28.6393 13.6882 30.962 13.6882 33.978C13.6882 36.994 13.1509 39.3167 12.0762 40.946C11.0189 42.5753 9.54555 43.39 7.65622 43.39C5.76689 43.39 4.28489 42.5753 3.21022 40.946C2.15289 39.3167 1.62422 36.994 1.62422 33.978ZM11.1402 33.978C11.1402 32.99 11.0796 32.054 10.9582 31.17C10.8542 30.286 10.6636 29.5147 10.3862 28.856C10.1262 28.1973 9.77089 27.6773 9.32022 27.296C8.86955 26.8973 8.31489 26.698 7.65622 26.698C6.99755 26.698 6.44289 26.8973 5.99222 27.296C5.54155 27.6773 5.17755 28.1973 4.90022 28.856C4.64022 29.5147 4.44955 30.286 4.32822 31.17C4.22422 32.054 4.17222 32.99 4.17222 33.978C4.17222 34.966 4.22422 35.902 4.32822 36.786C4.44955 37.67 4.64022 38.4413 4.90022 39.1C5.17755 39.7587 5.54155 40.2873 5.99222 40.686C6.44289 41.0673 6.99755 41.258 7.65622 41.258C8.31489 41.258 8.86955 41.0673 9.32022 40.686C9.77089 40.2873 10.1262 39.7587 10.3862 39.1C10.6636 38.4413 10.8542 37.67 10.9582 36.786C11.0796 35.902 11.1402 34.966 11.1402 33.978ZM27.142 29.584C27.142 30.208 27.012 30.8147 26.752 31.404C26.5093 31.976 26.18 32.548 25.764 33.12C25.348 33.6747 24.88 34.2293 24.36 34.784C23.84 35.3213 23.32 35.85 22.8 36.37C22.5053 36.6647 22.1587 37.0113 21.76 37.41C21.3787 37.8087 21.0147 38.2247 20.668 38.658C20.3213 39.0913 20.0267 39.5073 19.784 39.906C19.5587 40.3047 19.446 40.6513 19.446 40.946H27.74V43H16.82C16.8027 42.896 16.794 42.792 16.794 42.688C16.794 42.584 16.794 42.4887 16.794 42.402C16.794 41.5873 16.924 40.8333 17.184 40.14C17.4613 39.4293 17.8167 38.762 18.25 38.138C18.6833 37.514 19.1687 36.9247 19.706 36.37C20.2433 35.8153 20.772 35.278 21.292 34.758C21.7253 34.342 22.1327 33.9347 22.514 33.536C22.9127 33.12 23.2593 32.7127 23.554 32.314C23.866 31.898 24.1087 31.4733 24.282 31.04C24.4727 30.6067 24.568 30.1473 24.568 29.662C24.568 29.142 24.4813 28.7 24.308 28.336C24.152 27.972 23.9353 27.6687 23.658 27.426C23.3807 27.1833 23.0513 27.01 22.67 26.906C22.306 26.7847 21.916 26.724 21.5 26.724C20.9973 26.724 20.538 26.7933 20.122 26.932C19.706 27.0707 19.3333 27.2353 19.004 27.426C18.6747 27.5993 18.3973 27.79 18.172 27.998C17.9467 28.1887 17.7733 28.336 17.652 28.44L16.456 26.724C16.612 26.5507 16.846 26.3427 17.158 26.1C17.47 25.84 17.8427 25.5973 18.276 25.372C18.7093 25.1467 19.1947 24.956 19.732 24.8C20.2693 24.644 20.85 24.566 21.474 24.566C23.3633 24.566 24.776 25.008 25.712 25.892C26.6653 26.7587 27.142 27.9893 27.142 29.584Z" fill="#484848"/>
<path d="M134.569 115.713C134.569 116.973 134.373 118.072 133.981 119.01C133.589 119.934 133.036 120.704 132.322 121.32C131.608 121.922 130.754 122.377 129.76 122.685C128.766 122.979 127.674 123.126 126.484 123.126C125.896 123.126 125.245 123.098 124.531 123.042C123.831 123 123.194 122.909 122.62 122.769V108.657C123.194 108.517 123.831 108.426 124.531 108.384C125.245 108.328 125.896 108.3 126.484 108.3C127.674 108.3 128.766 108.454 129.76 108.762C130.754 109.056 131.608 109.511 132.322 110.127C133.036 110.729 133.589 111.499 133.981 112.437C134.373 113.361 134.569 114.453 134.569 115.713ZM126.652 121.341C128.584 121.341 130.026 120.851 130.978 119.871C131.93 118.877 132.406 117.491 132.406 115.713C132.406 113.935 131.93 112.556 130.978 111.576C130.026 110.582 128.584 110.085 126.652 110.085C126.078 110.085 125.63 110.092 125.308 110.106C125 110.12 124.783 110.134 124.657 110.148V121.278C124.783 121.292 125 121.306 125.308 121.32C125.63 121.334 126.078 121.341 126.652 121.341ZM139.418 123H137.465V112.08H139.418V123ZM138.431 110.106C138.081 110.106 137.78 109.994 137.528 109.77C137.29 109.532 137.171 109.217 137.171 108.825C137.171 108.433 137.29 108.125 137.528 107.901C137.78 107.663 138.081 107.544 138.431 107.544C138.781 107.544 139.075 107.663 139.313 107.901C139.565 108.125 139.691 108.433 139.691 108.825C139.691 109.217 139.565 109.532 139.313 109.77C139.075 109.994 138.781 110.106 138.431 110.106ZM145.317 121.593C146.115 121.593 146.703 121.488 147.081 121.278C147.473 121.068 147.669 120.732 147.669 120.27C147.669 119.794 147.48 119.416 147.102 119.136C146.724 118.856 146.101 118.541 145.233 118.191C144.813 118.023 144.407 117.855 144.015 117.687C143.637 117.505 143.308 117.295 143.028 117.057C142.748 116.819 142.524 116.532 142.356 116.196C142.188 115.86 142.104 115.447 142.104 114.957C142.104 113.991 142.461 113.228 143.175 112.668C143.889 112.094 144.862 111.807 146.094 111.807C146.402 111.807 146.71 111.828 147.018 111.87C147.326 111.898 147.613 111.94 147.879 111.996C148.145 112.038 148.376 112.087 148.572 112.143C148.782 112.199 148.943 112.248 149.055 112.29L148.698 113.97C148.488 113.858 148.159 113.746 147.711 113.634C147.263 113.508 146.724 113.445 146.094 113.445C145.548 113.445 145.072 113.557 144.666 113.781C144.26 113.991 144.057 114.327 144.057 114.789C144.057 115.027 144.099 115.237 144.183 115.419C144.281 115.601 144.421 115.769 144.603 115.923C144.799 116.063 145.037 116.196 145.317 116.322C145.597 116.448 145.933 116.581 146.325 116.721C146.843 116.917 147.305 117.113 147.711 117.309C148.117 117.491 148.46 117.708 148.74 117.96C149.034 118.212 149.258 118.52 149.412 118.884C149.566 119.234 149.643 119.668 149.643 120.186C149.643 121.194 149.265 121.957 148.509 122.475C147.767 122.993 146.703 123.252 145.317 123.252C144.351 123.252 143.595 123.168 143.049 123C142.503 122.846 142.132 122.727 141.936 122.643L142.293 120.963C142.517 121.047 142.874 121.173 143.364 121.341C143.854 121.509 144.505 121.593 145.317 121.593ZM153.975 112.08H158.112V113.718H153.975V118.758C153.975 119.304 154.017 119.759 154.101 120.123C154.185 120.473 154.311 120.753 154.479 120.963C154.647 121.159 154.857 121.299 155.109 121.383C155.361 121.467 155.655 121.509 155.991 121.509C156.579 121.509 157.048 121.446 157.398 121.32C157.762 121.18 158.014 121.082 158.154 121.026L158.532 122.643C158.336 122.741 157.993 122.86 157.503 123C157.013 123.154 156.453 123.231 155.823 123.231C155.081 123.231 154.465 123.14 153.975 122.958C153.499 122.762 153.114 122.475 152.82 122.097C152.526 121.719 152.316 121.257 152.19 120.711C152.078 120.151 152.022 119.507 152.022 118.779V109.035L153.975 108.699V112.08ZM164.629 111.849C164.797 111.849 164.986 111.863 165.196 111.891C165.42 111.905 165.637 111.933 165.847 111.975C166.057 112.003 166.246 112.038 166.414 112.08C166.596 112.108 166.729 112.136 166.813 112.164L166.477 113.865C166.323 113.809 166.064 113.746 165.7 113.676C165.35 113.592 164.895 113.55 164.335 113.55C163.971 113.55 163.607 113.592 163.243 113.676C162.893 113.746 162.662 113.795 162.55 113.823V123H160.597V112.542C161.059 112.374 161.633 112.22 162.319 112.08C163.005 111.926 163.775 111.849 164.629 111.849ZM170.651 123H168.698V112.08H170.651V123ZM169.664 110.106C169.314 110.106 169.013 109.994 168.761 109.77C168.523 109.532 168.404 109.217 168.404 108.825C168.404 108.433 168.523 108.125 168.761 107.901C169.013 107.663 169.314 107.544 169.664 107.544C170.014 107.544 170.308 107.663 170.546 107.901C170.798 108.125 170.924 108.433 170.924 108.825C170.924 109.217 170.798 109.532 170.546 109.77C170.308 109.994 170.014 110.106 169.664 110.106ZM175.963 112.563C176.201 112.409 176.558 112.248 177.034 112.08C177.524 111.912 178.084 111.828 178.714 111.828C179.498 111.828 180.191 111.968 180.793 112.248C181.409 112.528 181.927 112.92 182.347 113.424C182.767 113.928 183.082 114.53 183.292 115.23C183.516 115.93 183.628 116.7 183.628 117.54C183.628 118.422 183.495 119.22 183.229 119.934C182.977 120.634 182.613 121.229 182.137 121.719C181.661 122.209 181.087 122.587 180.415 122.853C179.743 123.119 178.987 123.252 178.147 123.252C177.237 123.252 176.432 123.189 175.732 123.063C175.032 122.937 174.458 122.811 174.01 122.685V107.04L175.963 106.704V112.563ZM175.963 121.299C176.159 121.355 176.432 121.411 176.782 121.467C177.146 121.509 177.594 121.53 178.126 121.53C179.176 121.53 180.016 121.187 180.646 120.501C181.276 119.801 181.591 118.814 181.591 117.54C181.591 116.98 181.535 116.455 181.423 115.965C181.311 115.475 181.129 115.055 180.877 114.705C180.625 114.341 180.296 114.061 179.89 113.865C179.498 113.655 179.022 113.55 178.462 113.55C177.93 113.55 177.44 113.641 176.992 113.823C176.544 114.005 176.201 114.194 175.963 114.39V121.299ZM195.07 122.685C194.622 122.797 194.027 122.916 193.285 123.042C192.557 123.168 191.71 123.231 190.744 123.231C189.904 123.231 189.197 123.112 188.623 122.874C188.049 122.622 187.587 122.272 187.237 121.824C186.887 121.376 186.635 120.851 186.481 120.249C186.327 119.633 186.25 118.954 186.25 118.212V112.08H188.203V117.792C188.203 119.122 188.413 120.074 188.833 120.648C189.253 121.222 189.96 121.509 190.954 121.509C191.164 121.509 191.381 121.502 191.605 121.488C191.829 121.474 192.039 121.46 192.235 121.446C192.431 121.418 192.606 121.397 192.76 121.383C192.928 121.355 193.047 121.327 193.117 121.299V112.08H195.07V122.685ZM200.387 123H198.434V112.08H200.387V123ZM199.4 110.106C199.05 110.106 198.749 109.994 198.497 109.77C198.259 109.532 198.14 109.217 198.14 108.825C198.14 108.433 198.259 108.125 198.497 107.901C198.749 107.663 199.05 107.544 199.4 107.544C199.75 107.544 200.044 107.663 200.282 107.901C200.534 108.125 200.66 108.433 200.66 108.825C200.66 109.217 200.534 109.532 200.282 109.77C200.044 109.994 199.75 110.106 199.4 110.106ZM208.744 123.252L208.513 123.777C208.919 123.973 209.213 124.183 209.395 124.407C209.577 124.645 209.668 124.988 209.668 125.436C209.668 125.59 209.633 125.758 209.563 125.94C209.493 126.122 209.374 126.29 209.206 126.444C209.038 126.598 208.814 126.724 208.534 126.822C208.254 126.92 207.911 126.969 207.505 126.969C207.141 126.969 206.805 126.941 206.497 126.885C206.203 126.829 205.965 126.766 205.783 126.696L206.014 125.499C206.182 125.555 206.357 125.604 206.539 125.646C206.735 125.688 206.952 125.709 207.19 125.709C207.694 125.709 207.946 125.548 207.946 125.226C207.946 125.072 207.869 124.939 207.715 124.827C207.561 124.729 207.344 124.624 207.064 124.512L206.917 124.449C206.973 124.281 207.05 124.078 207.148 123.84C207.246 123.602 207.351 123.378 207.463 123.168C206.749 123.07 206.119 122.867 205.573 122.559C205.041 122.237 204.593 121.831 204.229 121.341C203.865 120.851 203.592 120.291 203.41 119.661C203.228 119.017 203.137 118.317 203.137 117.561C203.137 116.721 203.256 115.951 203.494 115.251C203.746 114.551 204.096 113.949 204.544 113.445C204.992 112.927 205.538 112.528 206.182 112.248C206.84 111.954 207.568 111.807 208.366 111.807C208.856 111.807 209.346 111.849 209.836 111.933C210.326 112.017 210.795 112.15 211.243 112.332L210.802 113.991C210.508 113.851 210.165 113.739 209.773 113.655C209.395 113.571 208.989 113.529 208.555 113.529C207.463 113.529 206.623 113.872 206.035 114.558C205.461 115.244 205.174 116.245 205.174 117.561C205.174 118.149 205.237 118.688 205.363 119.178C205.503 119.668 205.713 120.088 205.993 120.438C206.287 120.788 206.658 121.061 207.106 121.257C207.554 121.439 208.1 121.53 208.744 121.53C209.262 121.53 209.731 121.481 210.151 121.383C210.571 121.285 210.9 121.18 211.138 121.068L211.411 122.706C211.299 122.762 211.145 122.825 210.949 122.895C210.767 122.951 210.557 123 210.319 123.042C210.081 123.098 209.822 123.14 209.542 123.168C209.276 123.21 209.01 123.238 208.744 123.252ZM217.204 121.593C217.666 121.593 218.072 121.586 218.422 121.572C218.786 121.544 219.087 121.502 219.325 121.446V118.191C219.185 118.121 218.954 118.065 218.632 118.023C218.324 117.967 217.946 117.939 217.498 117.939C217.204 117.939 216.889 117.96 216.553 118.002C216.231 118.044 215.93 118.135 215.65 118.275C215.384 118.401 215.16 118.583 214.978 118.821C214.796 119.045 214.705 119.346 214.705 119.724C214.705 120.424 214.929 120.914 215.377 121.194C215.825 121.46 216.434 121.593 217.204 121.593ZM217.036 111.807C217.82 111.807 218.478 111.912 219.01 112.122C219.556 112.318 219.99 112.605 220.312 112.983C220.648 113.347 220.886 113.788 221.026 114.306C221.166 114.81 221.236 115.37 221.236 115.986V122.811C221.068 122.839 220.83 122.881 220.522 122.937C220.228 122.979 219.892 123.021 219.514 123.063C219.136 123.105 218.723 123.14 218.275 123.168C217.841 123.21 217.407 123.231 216.973 123.231C216.357 123.231 215.79 123.168 215.272 123.042C214.754 122.916 214.306 122.72 213.928 122.454C213.55 122.174 213.256 121.81 213.046 121.362C212.836 120.914 212.731 120.375 212.731 119.745C212.731 119.143 212.85 118.625 213.088 118.191C213.34 117.757 213.676 117.407 214.096 117.141C214.516 116.875 215.006 116.679 215.566 116.553C216.126 116.427 216.714 116.364 217.33 116.364C217.526 116.364 217.729 116.378 217.939 116.406C218.149 116.42 218.345 116.448 218.527 116.49C218.723 116.518 218.891 116.546 219.031 116.574C219.171 116.602 219.269 116.623 219.325 116.637V116.091C219.325 115.769 219.29 115.454 219.22 115.146C219.15 114.824 219.024 114.544 218.842 114.306C218.66 114.054 218.408 113.858 218.086 113.718C217.778 113.564 217.372 113.487 216.868 113.487C216.224 113.487 215.657 113.536 215.167 113.634C214.691 113.718 214.334 113.809 214.096 113.907L213.865 112.29C214.117 112.178 214.537 112.073 215.125 111.975C215.713 111.863 216.35 111.807 217.036 111.807ZM220.816 108.069C220.746 108.237 220.648 108.433 220.522 108.657C220.41 108.881 220.263 109.091 220.081 109.287C219.899 109.469 219.682 109.63 219.43 109.77C219.192 109.896 218.926 109.959 218.632 109.959C218.352 109.959 218.086 109.91 217.834 109.812C217.596 109.714 217.365 109.609 217.141 109.497C216.903 109.385 216.7 109.301 216.532 109.245C216.364 109.189 216.203 109.161 216.049 109.161C215.811 109.161 215.587 109.259 215.377 109.455C215.181 109.651 215.027 109.861 214.915 110.085L213.907 109.581C213.963 109.413 214.054 109.217 214.18 108.993C214.306 108.769 214.46 108.566 214.642 108.384C214.824 108.188 215.034 108.027 215.272 107.901C215.524 107.761 215.797 107.691 216.091 107.691C216.371 107.691 216.63 107.74 216.868 107.838C217.12 107.936 217.358 108.041 217.582 108.153C217.82 108.265 218.023 108.349 218.191 108.405C218.359 108.461 218.52 108.489 218.674 108.489C218.912 108.489 219.129 108.391 219.325 108.195C219.535 107.999 219.696 107.789 219.808 107.565L220.816 108.069ZM234.118 117.54C234.118 118.408 233.992 119.192 233.74 119.892C233.488 120.592 233.131 121.194 232.669 121.698C232.221 122.202 231.682 122.594 231.052 122.874C230.422 123.14 229.736 123.273 228.994 123.273C228.252 123.273 227.566 123.14 226.936 122.874C226.306 122.594 225.76 122.202 225.298 121.698C224.85 121.194 224.5 120.592 224.248 119.892C223.996 119.192 223.87 118.408 223.87 117.54C223.87 116.686 223.996 115.909 224.248 115.209C224.5 114.495 224.85 113.886 225.298 113.382C225.76 112.878 226.306 112.493 226.936 112.227C227.566 111.947 228.252 111.807 228.994 111.807C229.736 111.807 230.422 111.947 231.052 112.227C231.682 112.493 232.221 112.878 232.669 113.382C233.131 113.886 233.488 114.495 233.74 115.209C233.992 115.909 234.118 116.686 234.118 117.54ZM232.081 117.54C232.081 116.308 231.801 115.335 231.241 114.621C230.695 113.893 229.946 113.529 228.994 113.529C228.042 113.529 227.286 113.893 226.726 114.621C226.18 115.335 225.907 116.308 225.907 117.54C225.907 118.772 226.18 119.752 226.726 120.48C227.286 121.194 228.042 121.551 228.994 121.551C229.946 121.551 230.695 121.194 231.241 120.48C231.801 119.752 232.081 118.772 232.081 117.54Z" fill="#484848"/>
<path d="M42 33H97" stroke="#E1251B"/>
</svg>
