<svg width="273" height="157" viewBox="0 0 273 157" fill="none" xmlns="http://www.w3.org/2000/svg">
<path d="M1.62422 35.978C1.62422 32.962 2.15289 30.6393 3.21022 29.01C4.28489 27.3807 5.76689 26.566 7.65622 26.566C9.54555 26.566 11.0189 27.3807 12.0762 29.01C13.1509 30.6393 13.6882 32.962 13.6882 35.978C13.6882 38.994 13.1509 41.3167 12.0762 42.946C11.0189 44.5753 9.54555 45.39 7.65622 45.39C5.76689 45.39 4.28489 44.5753 3.21022 42.946C2.15289 41.3167 1.62422 38.994 1.62422 35.978ZM11.1402 35.978C11.1402 34.99 11.0796 34.054 10.9582 33.17C10.8542 32.286 10.6636 31.5147 10.3862 30.856C10.1262 30.1973 9.77089 29.6773 9.32022 29.296C8.86955 28.8973 8.31489 28.698 7.65622 28.698C6.99755 28.698 6.44289 28.8973 5.99222 29.296C5.54155 29.6773 5.17755 30.1973 4.90022 30.856C4.64022 31.5147 4.44955 32.286 4.32822 33.17C4.22422 34.054 4.17222 34.99 4.17222 35.978C4.17222 36.966 4.22422 37.902 4.32822 38.786C4.44955 39.67 4.64022 40.4413 4.90022 41.1C5.17755 41.7587 5.54155 42.2873 5.99222 42.686C6.44289 43.0673 6.99755 43.258 7.65622 43.258C8.31489 43.258 8.86955 43.0673 9.32022 42.686C9.77089 42.2873 10.1262 41.7587 10.3862 41.1C10.6636 40.4413 10.8542 39.67 10.9582 38.786C11.0796 37.902 11.1402 36.966 11.1402 35.978ZM20.876 43.232C22.4187 43.232 23.5193 42.9287 24.178 42.322C24.854 41.7153 25.192 40.9007 25.192 39.878C25.192 39.2193 25.0533 38.6647 24.776 38.214C24.4987 37.7633 24.1347 37.408 23.684 37.148C23.2333 36.8707 22.7047 36.68 22.098 36.576C21.5087 36.4547 20.902 36.394 20.278 36.394H19.654V34.418H20.512C20.9453 34.418 21.3873 34.3747 21.838 34.288C22.306 34.2013 22.7307 34.0453 23.112 33.82C23.4933 33.5947 23.8053 33.2913 24.048 32.91C24.2907 32.5113 24.412 32.0173 24.412 31.428C24.412 30.9427 24.3253 30.5267 24.152 30.18C23.9787 29.8333 23.7447 29.5473 23.45 29.322C23.1727 29.0967 22.8433 28.9407 22.462 28.854C22.098 28.75 21.708 28.698 21.292 28.698C20.46 28.698 19.7493 28.8193 19.16 29.062C18.588 29.3047 18.1027 29.556 17.704 29.816L16.768 27.97C16.976 27.8313 17.236 27.684 17.548 27.528C17.8773 27.3547 18.2413 27.1987 18.64 27.06C19.0387 26.9213 19.4633 26.8087 19.914 26.722C20.382 26.618 20.8673 26.566 21.37 26.566C22.3233 26.566 23.1467 26.6873 23.84 26.93C24.5333 27.1553 25.1053 27.4847 25.556 27.918C26.0067 28.334 26.3447 28.8367 26.57 29.426C26.7953 29.998 26.908 30.622 26.908 31.298C26.908 32.234 26.6393 33.04 26.102 33.716C25.5647 34.3747 24.9147 34.8773 24.152 35.224C24.62 35.3627 25.0707 35.562 25.504 35.822C25.9373 36.082 26.31 36.4113 26.622 36.81C26.9513 37.2087 27.2113 37.668 27.402 38.188C27.61 38.708 27.714 39.2887 27.714 39.93C27.714 40.71 27.5753 41.438 27.298 42.114C27.038 42.7727 26.622 43.3447 26.05 43.83C25.4953 44.3153 24.7933 44.6967 23.944 44.974C23.0947 45.2513 22.0893 45.39 20.928 45.39C20.4773 45.39 20.0093 45.3553 19.524 45.286C19.056 45.2167 18.614 45.13 18.198 45.026C17.782 44.922 17.418 44.818 17.106 44.714C16.794 44.61 16.5687 44.5233 16.43 44.454L16.898 42.348C17.1927 42.4867 17.678 42.6687 18.354 42.894C19.0473 43.1193 19.888 43.232 20.876 43.232Z" fill="#484848"/>
<path d="M126.261 123.551C128.389 123.551 129.453 122.823 129.453 121.367C129.453 120.919 129.355 120.541 129.159 120.233C128.977 119.911 128.725 119.638 128.403 119.414C128.081 119.176 127.71 118.973 127.29 118.805C126.884 118.637 126.45 118.469 125.988 118.301C125.456 118.119 124.952 117.916 124.476 117.692C124 117.454 123.587 117.181 123.237 116.873C122.887 116.551 122.607 116.173 122.397 115.739C122.201 115.305 122.103 114.78 122.103 114.164C122.103 112.89 122.537 111.896 123.405 111.182C124.273 110.468 125.47 110.111 126.996 110.111C127.878 110.111 128.676 110.209 129.39 110.405C130.118 110.587 130.65 110.79 130.986 111.014L130.335 112.673C130.041 112.491 129.6 112.316 129.012 112.148C128.438 111.966 127.766 111.875 126.996 111.875C126.604 111.875 126.24 111.917 125.904 112.001C125.568 112.085 125.274 112.211 125.022 112.379C124.77 112.547 124.567 112.764 124.413 113.03C124.273 113.282 124.203 113.583 124.203 113.933C124.203 114.325 124.28 114.654 124.434 114.92C124.588 115.186 124.805 115.424 125.085 115.634C125.365 115.83 125.687 116.012 126.051 116.18C126.429 116.348 126.842 116.516 127.29 116.684C127.92 116.936 128.494 117.188 129.012 117.44C129.544 117.692 129.999 117.993 130.377 118.343C130.769 118.693 131.07 119.113 131.28 119.603C131.49 120.079 131.595 120.66 131.595 121.346C131.595 122.62 131.126 123.6 130.188 124.286C129.264 124.972 127.955 125.315 126.261 125.315C125.687 125.315 125.155 125.273 124.665 125.189C124.189 125.119 123.762 125.035 123.384 124.937C123.006 124.825 122.677 124.713 122.397 124.601C122.131 124.475 121.921 124.37 121.767 124.286L122.376 122.606C122.698 122.788 123.188 122.991 123.846 123.215C124.504 123.439 125.309 123.551 126.261 123.551ZM135.884 125H133.931V114.08H135.884V125ZM134.897 112.106C134.547 112.106 134.246 111.994 133.994 111.77C133.756 111.532 133.637 111.217 133.637 110.825C133.637 110.433 133.756 110.125 133.994 109.901C134.246 109.663 134.547 109.544 134.897 109.544C135.247 109.544 135.541 109.663 135.779 109.901C136.031 110.125 136.157 110.433 136.157 110.825C136.157 111.217 136.031 111.532 135.779 111.77C135.541 111.994 135.247 112.106 134.897 112.106ZM141.784 123.593C142.582 123.593 143.17 123.488 143.548 123.278C143.94 123.068 144.136 122.732 144.136 122.27C144.136 121.794 143.947 121.416 143.569 121.136C143.191 120.856 142.568 120.541 141.7 120.191C141.28 120.023 140.874 119.855 140.482 119.687C140.104 119.505 139.775 119.295 139.495 119.057C139.215 118.819 138.991 118.532 138.823 118.196C138.655 117.86 138.571 117.447 138.571 116.957C138.571 115.991 138.928 115.228 139.642 114.668C140.356 114.094 141.329 113.807 142.561 113.807C142.869 113.807 143.177 113.828 143.485 113.87C143.793 113.898 144.08 113.94 144.346 113.996C144.612 114.038 144.843 114.087 145.039 114.143C145.249 114.199 145.41 114.248 145.522 114.29L145.165 115.97C144.955 115.858 144.626 115.746 144.178 115.634C143.73 115.508 143.191 115.445 142.561 115.445C142.015 115.445 141.539 115.557 141.133 115.781C140.727 115.991 140.524 116.327 140.524 116.789C140.524 117.027 140.566 117.237 140.649 117.419C140.748 117.601 140.888 117.769 141.07 117.923C141.266 118.063 141.504 118.196 141.784 118.322C142.064 118.448 142.4 118.581 142.792 118.721C143.31 118.917 143.772 119.113 144.178 119.309C144.584 119.491 144.927 119.708 145.207 119.96C145.501 120.212 145.725 120.52 145.879 120.884C146.033 121.234 146.11 121.668 146.11 122.186C146.11 123.194 145.732 123.957 144.976 124.475C144.234 124.993 143.17 125.252 141.784 125.252C140.818 125.252 140.062 125.168 139.516 125C138.97 124.846 138.599 124.727 138.403 124.643L138.76 122.963C138.984 123.047 139.341 123.173 139.831 123.341C140.321 123.509 140.972 123.593 141.784 123.593ZM150.442 114.08H154.579V115.718H150.442V120.758C150.442 121.304 150.484 121.759 150.568 122.123C150.652 122.473 150.778 122.753 150.946 122.963C151.114 123.159 151.324 123.299 151.576 123.383C151.828 123.467 152.122 123.509 152.458 123.509C153.046 123.509 153.515 123.446 153.865 123.32C154.229 123.18 154.481 123.082 154.621 123.026L154.999 124.643C154.803 124.741 154.46 124.86 153.97 125C153.48 125.154 152.92 125.231 152.29 125.231C151.548 125.231 150.932 125.14 150.442 124.958C149.966 124.762 149.581 124.475 149.287 124.097C148.993 123.719 148.783 123.257 148.657 122.711C148.545 122.151 148.489 121.507 148.489 120.779V111.035L150.442 110.699V114.08ZM156.25 119.561C156.25 118.595 156.39 117.755 156.67 117.041C156.95 116.313 157.321 115.711 157.783 115.235C158.245 114.759 158.777 114.402 159.379 114.164C159.981 113.926 160.597 113.807 161.227 113.807C162.697 113.807 163.824 114.269 164.608 115.193C165.392 116.103 165.784 117.496 165.784 119.372C165.784 119.456 165.784 119.568 165.784 119.708C165.784 119.834 165.777 119.953 165.763 120.065H158.287C158.371 121.199 158.7 122.06 159.274 122.648C159.848 123.236 160.744 123.53 161.962 123.53C162.648 123.53 163.222 123.474 163.684 123.362C164.16 123.236 164.517 123.117 164.755 123.005L165.028 124.643C164.79 124.769 164.37 124.902 163.768 125.042C163.18 125.182 162.508 125.252 161.752 125.252C160.8 125.252 159.974 125.112 159.274 124.832C158.588 124.538 158.021 124.139 157.573 123.635C157.125 123.131 156.789 122.536 156.565 121.85C156.355 121.15 156.25 120.387 156.25 119.561ZM163.747 118.49C163.761 117.608 163.537 116.887 163.075 116.327C162.627 115.753 162.004 115.466 161.206 115.466C160.758 115.466 160.359 115.557 160.009 115.739C159.673 115.907 159.386 116.131 159.148 116.411C158.91 116.691 158.721 117.013 158.581 117.377C158.455 117.741 158.371 118.112 158.329 118.49H163.747ZM168.589 114.395C169.037 114.283 169.625 114.164 170.353 114.038C171.095 113.912 171.949 113.849 172.915 113.849C173.615 113.849 174.203 113.947 174.679 114.143C175.155 114.325 175.554 114.598 175.876 114.962C175.974 114.892 176.128 114.794 176.338 114.668C176.548 114.542 176.807 114.423 177.115 114.311C177.423 114.185 177.766 114.08 178.144 113.996C178.522 113.898 178.928 113.849 179.362 113.849C180.202 113.849 180.888 113.975 181.42 114.227C181.952 114.465 182.365 114.808 182.659 115.256C182.967 115.704 183.17 116.236 183.268 116.852C183.38 117.468 183.436 118.14 183.436 118.868V125H181.483V119.288C181.483 118.644 181.448 118.091 181.378 117.629C181.322 117.167 181.203 116.782 181.021 116.474C180.853 116.166 180.615 115.942 180.307 115.802C180.013 115.648 179.628 115.571 179.152 115.571C178.494 115.571 177.948 115.662 177.514 115.844C177.094 116.012 176.807 116.166 176.653 116.306C176.765 116.67 176.849 117.069 176.905 117.503C176.961 117.937 176.989 118.392 176.989 118.868V125H175.036V119.288C175.036 118.644 175.001 118.091 174.931 117.629C174.861 117.167 174.735 116.782 174.553 116.474C174.385 116.166 174.147 115.942 173.839 115.802C173.545 115.648 173.167 115.571 172.705 115.571C172.509 115.571 172.299 115.578 172.075 115.592C171.851 115.606 171.634 115.627 171.424 115.655C171.228 115.669 171.046 115.69 170.878 115.718C170.71 115.746 170.598 115.767 170.542 115.781V125H168.589V114.395ZM190.373 123.593C190.835 123.593 191.241 123.586 191.591 123.572C191.955 123.544 192.256 123.502 192.494 123.446V120.191C192.354 120.121 192.123 120.065 191.801 120.023C191.493 119.967 191.115 119.939 190.667 119.939C190.373 119.939 190.058 119.96 189.722 120.002C189.4 120.044 189.099 120.135 188.819 120.275C188.553 120.401 188.329 120.583 188.147 120.821C187.965 121.045 187.874 121.346 187.874 121.724C187.874 122.424 188.098 122.914 188.546 123.194C188.994 123.46 189.603 123.593 190.373 123.593ZM190.205 113.807C190.989 113.807 191.647 113.912 192.179 114.122C192.725 114.318 193.159 114.605 193.481 114.983C193.817 115.347 194.055 115.788 194.195 116.306C194.335 116.81 194.405 117.37 194.405 117.986V124.811C194.237 124.839 193.999 124.881 193.691 124.937C193.397 124.979 193.061 125.021 192.683 125.063C192.305 125.105 191.892 125.14 191.444 125.168C191.01 125.21 190.576 125.231 190.142 125.231C189.526 125.231 188.959 125.168 188.441 125.042C187.923 124.916 187.475 124.72 187.097 124.454C186.719 124.174 186.425 123.81 186.215 123.362C186.005 122.914 185.9 122.375 185.9 121.745C185.9 121.143 186.019 120.625 186.257 120.191C186.509 119.757 186.845 119.407 187.265 119.141C187.685 118.875 188.175 118.679 188.735 118.553C189.295 118.427 189.883 118.364 190.499 118.364C190.695 118.364 190.898 118.378 191.108 118.406C191.318 118.42 191.514 118.448 191.696 118.49C191.892 118.518 192.06 118.546 192.2 118.574C192.34 118.602 192.438 118.623 192.494 118.637V118.091C192.494 117.769 192.459 117.454 192.389 117.146C192.319 116.824 192.193 116.544 192.011 116.306C191.829 116.054 191.577 115.858 191.255 115.718C190.947 115.564 190.541 115.487 190.037 115.487C189.393 115.487 188.826 115.536 188.336 115.634C187.86 115.718 187.503 115.809 187.265 115.907L187.034 114.29C187.286 114.178 187.706 114.073 188.294 113.975C188.882 113.863 189.519 113.807 190.205 113.807ZM209.565 116.39C209.327 116.194 208.984 116.005 208.536 115.823C208.088 115.641 207.598 115.55 207.066 115.55C206.506 115.55 206.023 115.655 205.617 115.865C205.225 116.061 204.903 116.341 204.651 116.705C204.399 117.055 204.217 117.475 204.105 117.965C203.993 118.455 203.937 118.98 203.937 119.54C203.937 120.814 204.252 121.801 204.882 122.501C205.512 123.187 206.352 123.53 207.402 123.53C207.934 123.53 208.375 123.509 208.725 123.467C209.089 123.411 209.369 123.355 209.565 123.299V116.39ZM209.565 109.04L211.518 108.704V124.685C211.07 124.811 210.496 124.937 209.796 125.063C209.096 125.189 208.291 125.252 207.381 125.252C206.541 125.252 205.785 125.119 205.113 124.853C204.441 124.587 203.867 124.209 203.391 123.719C202.915 123.229 202.544 122.634 202.278 121.934C202.026 121.22 201.9 120.422 201.9 119.54C201.9 118.7 202.005 117.93 202.215 117.23C202.439 116.53 202.761 115.928 203.181 115.424C203.601 114.92 204.112 114.528 204.714 114.248C205.33 113.968 206.03 113.828 206.814 113.828C207.444 113.828 207.997 113.912 208.473 114.08C208.963 114.248 209.327 114.409 209.565 114.563V109.04ZM214.266 119.561C214.266 118.595 214.406 117.755 214.686 117.041C214.966 116.313 215.337 115.711 215.799 115.235C216.261 114.759 216.793 114.402 217.395 114.164C217.997 113.926 218.613 113.807 219.243 113.807C220.713 113.807 221.84 114.269 222.624 115.193C223.408 116.103 223.8 117.496 223.8 119.372C223.8 119.456 223.8 119.568 223.8 119.708C223.8 119.834 223.793 119.953 223.779 120.065H216.303C216.387 121.199 216.716 122.06 217.29 122.648C217.864 123.236 218.76 123.53 219.978 123.53C220.664 123.53 221.238 123.474 221.7 123.362C222.176 123.236 222.533 123.117 222.771 123.005L223.044 124.643C222.806 124.769 222.386 124.902 221.784 125.042C221.196 125.182 220.524 125.252 219.768 125.252C218.816 125.252 217.99 125.112 217.29 124.832C216.604 124.538 216.037 124.139 215.589 123.635C215.141 123.131 214.805 122.536 214.581 121.85C214.371 121.15 214.266 120.387 214.266 119.561ZM221.763 118.49C221.777 117.608 221.553 116.887 221.091 116.327C220.643 115.753 220.02 115.466 219.222 115.466C218.774 115.466 218.375 115.557 218.025 115.739C217.689 115.907 217.402 116.131 217.164 116.411C216.926 116.691 216.737 117.013 216.597 117.377C216.471 117.741 216.387 118.112 216.345 118.49H221.763ZM138.068 151.593C138.53 151.593 138.936 151.586 139.286 151.572C139.65 151.544 139.951 151.502 140.189 151.446V148.191C140.049 148.121 139.818 148.065 139.496 148.023C139.188 147.967 138.81 147.939 138.362 147.939C138.068 147.939 137.753 147.96 137.417 148.002C137.095 148.044 136.794 148.135 136.514 148.275C136.248 148.401 136.024 148.583 135.842 148.821C135.66 149.045 135.569 149.346 135.569 149.724C135.569 150.424 135.793 150.914 136.241 151.194C136.689 151.46 137.298 151.593 138.068 151.593ZM137.9 141.807C138.684 141.807 139.342 141.912 139.874 142.122C140.42 142.318 140.854 142.605 141.176 142.983C141.512 143.347 141.75 143.788 141.89 144.306C142.03 144.81 142.1 145.37 142.1 145.986V152.811C141.932 152.839 141.694 152.881 141.386 152.937C141.092 152.979 140.756 153.021 140.378 153.063C140 153.105 139.587 153.14 139.139 153.168C138.705 153.21 138.271 153.231 137.837 153.231C137.221 153.231 136.654 153.168 136.136 153.042C135.618 152.916 135.17 152.72 134.792 152.454C134.414 152.174 134.12 151.81 133.91 151.362C133.7 150.914 133.595 150.375 133.595 149.745C133.595 149.143 133.714 148.625 133.952 148.191C134.204 147.757 134.54 147.407 134.96 147.141C135.38 146.875 135.87 146.679 136.43 146.553C136.99 146.427 137.578 146.364 138.194 146.364C138.39 146.364 138.593 146.378 138.803 146.406C139.013 146.42 139.209 146.448 139.391 146.49C139.587 146.518 139.755 146.546 139.895 146.574C140.035 146.602 140.133 146.623 140.189 146.637V146.091C140.189 145.769 140.154 145.454 140.084 145.146C140.014 144.824 139.888 144.544 139.706 144.306C139.524 144.054 139.272 143.858 138.95 143.718C138.642 143.564 138.236 143.487 137.732 143.487C137.088 143.487 136.521 143.536 136.031 143.634C135.555 143.718 135.198 143.809 134.96 143.907L134.729 142.29C134.981 142.178 135.401 142.073 135.989 141.975C136.577 141.863 137.214 141.807 137.9 141.807ZM149.607 136.704C150.097 136.704 150.517 136.739 150.867 136.809C151.217 136.865 151.469 136.921 151.623 136.977L151.35 138.657C151.196 138.601 150.986 138.545 150.72 138.489C150.454 138.419 150.132 138.384 149.754 138.384C148.844 138.384 148.207 138.636 147.843 139.14C147.479 139.63 147.297 140.295 147.297 141.135V142.08H151.497V143.718H147.297V153H145.344V141.093C145.344 139.693 145.687 138.615 146.373 137.859C147.059 137.089 148.137 136.704 149.607 136.704ZM155.487 153H153.534V142.08H155.487V153ZM154.5 140.106C154.15 140.106 153.849 139.994 153.597 139.77C153.359 139.532 153.24 139.217 153.24 138.825C153.24 138.433 153.359 138.125 153.597 137.901C153.849 137.663 154.15 137.544 154.5 137.544C154.85 137.544 155.144 137.663 155.382 137.901C155.634 138.125 155.76 138.433 155.76 138.825C155.76 139.217 155.634 139.532 155.382 139.77C155.144 139.994 154.85 140.106 154.5 140.106ZM158.838 142.395C159.286 142.283 159.881 142.164 160.623 142.038C161.365 141.912 162.219 141.849 163.185 141.849C164.053 141.849 164.774 141.975 165.348 142.227C165.922 142.465 166.377 142.808 166.713 143.256C167.063 143.69 167.308 144.215 167.448 144.831C167.588 145.447 167.658 146.126 167.658 146.868V153H165.705V147.288C165.705 146.616 165.656 146.042 165.558 145.566C165.474 145.09 165.327 144.705 165.117 144.411C164.907 144.117 164.627 143.907 164.277 143.781C163.927 143.641 163.493 143.571 162.975 143.571C162.765 143.571 162.548 143.578 162.324 143.592C162.1 143.606 161.883 143.627 161.673 143.655C161.477 143.669 161.295 143.69 161.127 143.718C160.973 143.746 160.861 143.767 160.791 143.781V153H158.838V142.395ZM174.592 151.593C175.054 151.593 175.46 151.586 175.81 151.572C176.174 151.544 176.475 151.502 176.713 151.446V148.191C176.573 148.121 176.342 148.065 176.02 148.023C175.712 147.967 175.334 147.939 174.886 147.939C174.592 147.939 174.277 147.96 173.941 148.002C173.619 148.044 173.318 148.135 173.038 148.275C172.772 148.401 172.548 148.583 172.366 148.821C172.184 149.045 172.093 149.346 172.093 149.724C172.093 150.424 172.317 150.914 172.765 151.194C173.213 151.46 173.822 151.593 174.592 151.593ZM174.424 141.807C175.208 141.807 175.866 141.912 176.398 142.122C176.944 142.318 177.378 142.605 177.7 142.983C178.036 143.347 178.274 143.788 178.414 144.306C178.554 144.81 178.624 145.37 178.624 145.986V152.811C178.456 152.839 178.218 152.881 177.91 152.937C177.616 152.979 177.28 153.021 176.902 153.063C176.524 153.105 176.111 153.14 175.663 153.168C175.229 153.21 174.795 153.231 174.361 153.231C173.745 153.231 173.178 153.168 172.66 153.042C172.142 152.916 171.694 152.72 171.316 152.454C170.938 152.174 170.644 151.81 170.434 151.362C170.224 150.914 170.119 150.375 170.119 149.745C170.119 149.143 170.238 148.625 170.476 148.191C170.728 147.757 171.064 147.407 171.484 147.141C171.904 146.875 172.394 146.679 172.954 146.553C173.514 146.427 174.102 146.364 174.718 146.364C174.914 146.364 175.117 146.378 175.327 146.406C175.537 146.42 175.733 146.448 175.915 146.49C176.111 146.518 176.279 146.546 176.419 146.574C176.559 146.602 176.657 146.623 176.713 146.637V146.091C176.713 145.769 176.678 145.454 176.608 145.146C176.538 144.824 176.412 144.544 176.23 144.306C176.048 144.054 175.796 143.858 175.474 143.718C175.166 143.564 174.76 143.487 174.256 143.487C173.612 143.487 173.045 143.536 172.555 143.634C172.079 143.718 171.722 143.809 171.484 143.907L171.253 142.29C171.505 142.178 171.925 142.073 172.513 141.975C173.101 141.863 173.738 141.807 174.424 141.807ZM186.866 153.252L186.635 153.777C187.041 153.973 187.335 154.183 187.517 154.407C187.699 154.645 187.79 154.988 187.79 155.436C187.79 155.59 187.755 155.758 187.685 155.94C187.615 156.122 187.496 156.29 187.328 156.444C187.16 156.598 186.936 156.724 186.656 156.822C186.376 156.92 186.033 156.969 185.627 156.969C185.263 156.969 184.927 156.941 184.619 156.885C184.325 156.829 184.087 156.766 183.905 156.696L184.136 155.499C184.304 155.555 184.479 155.604 184.661 155.646C184.857 155.688 185.074 155.709 185.312 155.709C185.816 155.709 186.068 155.548 186.068 155.226C186.068 155.072 185.991 154.939 185.837 154.827C185.683 154.729 185.466 154.624 185.186 154.512L185.039 154.449C185.095 154.281 185.172 154.078 185.27 153.84C185.368 153.602 185.473 153.378 185.585 153.168C184.871 153.07 184.241 152.867 183.695 152.559C183.163 152.237 182.715 151.831 182.351 151.341C181.987 150.851 181.714 150.291 181.532 149.661C181.35 149.017 181.259 148.317 181.259 147.561C181.259 146.721 181.378 145.951 181.616 145.251C181.868 144.551 182.218 143.949 182.666 143.445C183.114 142.927 183.66 142.528 184.304 142.248C184.962 141.954 185.69 141.807 186.488 141.807C186.978 141.807 187.468 141.849 187.958 141.933C188.448 142.017 188.917 142.15 189.365 142.332L188.924 143.991C188.63 143.851 188.287 143.739 187.895 143.655C187.517 143.571 187.111 143.529 186.677 143.529C185.585 143.529 184.745 143.872 184.157 144.558C183.583 145.244 183.296 146.245 183.296 147.561C183.296 148.149 183.359 148.688 183.485 149.178C183.625 149.668 183.835 150.088 184.115 150.438C184.409 150.788 184.78 151.061 185.228 151.257C185.676 151.439 186.222 151.53 186.866 151.53C187.384 151.53 187.853 151.481 188.273 151.383C188.693 151.285 189.022 151.18 189.26 151.068L189.533 152.706C189.421 152.762 189.267 152.825 189.071 152.895C188.889 152.951 188.679 153 188.441 153.042C188.203 153.098 187.944 153.14 187.664 153.168C187.398 153.21 187.132 153.238 186.866 153.252ZM195.326 151.593C195.788 151.593 196.194 151.586 196.544 151.572C196.908 151.544 197.209 151.502 197.447 151.446V148.191C197.307 148.121 197.076 148.065 196.754 148.023C196.446 147.967 196.068 147.939 195.62 147.939C195.326 147.939 195.011 147.96 194.675 148.002C194.353 148.044 194.052 148.135 193.772 148.275C193.506 148.401 193.282 148.583 193.1 148.821C192.918 149.045 192.827 149.346 192.827 149.724C192.827 150.424 193.051 150.914 193.499 151.194C193.947 151.46 194.556 151.593 195.326 151.593ZM195.158 141.807C195.942 141.807 196.6 141.912 197.132 142.122C197.678 142.318 198.112 142.605 198.434 142.983C198.77 143.347 199.008 143.788 199.148 144.306C199.288 144.81 199.358 145.37 199.358 145.986V152.811C199.19 152.839 198.952 152.881 198.644 152.937C198.35 152.979 198.014 153.021 197.636 153.063C197.258 153.105 196.845 153.14 196.397 153.168C195.963 153.21 195.529 153.231 195.095 153.231C194.479 153.231 193.912 153.168 193.394 153.042C192.876 152.916 192.428 152.72 192.05 152.454C191.672 152.174 191.378 151.81 191.168 151.362C190.958 150.914 190.853 150.375 190.853 149.745C190.853 149.143 190.972 148.625 191.21 148.191C191.462 147.757 191.798 147.407 192.218 147.141C192.638 146.875 193.128 146.679 193.688 146.553C194.248 146.427 194.836 146.364 195.452 146.364C195.648 146.364 195.851 146.378 196.061 146.406C196.271 146.42 196.467 146.448 196.649 146.49C196.845 146.518 197.013 146.546 197.153 146.574C197.293 146.602 197.391 146.623 197.447 146.637V146.091C197.447 145.769 197.412 145.454 197.342 145.146C197.272 144.824 197.146 144.544 196.964 144.306C196.782 144.054 196.53 143.858 196.208 143.718C195.9 143.564 195.494 143.487 194.99 143.487C194.346 143.487 193.779 143.536 193.289 143.634C192.813 143.718 192.456 143.809 192.218 143.907L191.987 142.29C192.239 142.178 192.659 142.073 193.247 141.975C193.835 141.863 194.472 141.807 195.158 141.807ZM198.938 138.069C198.868 138.237 198.77 138.433 198.644 138.657C198.532 138.881 198.385 139.091 198.203 139.287C198.021 139.469 197.804 139.63 197.552 139.77C197.314 139.896 197.048 139.959 196.754 139.959C196.474 139.959 196.208 139.91 195.956 139.812C195.718 139.714 195.487 139.609 195.263 139.497C195.025 139.385 194.822 139.301 194.654 139.245C194.486 139.189 194.325 139.161 194.171 139.161C193.933 139.161 193.709 139.259 193.499 139.455C193.303 139.651 193.149 139.861 193.037 140.085L192.029 139.581C192.085 139.413 192.176 139.217 192.302 138.993C192.428 138.769 192.582 138.566 192.764 138.384C192.946 138.188 193.156 138.027 193.394 137.901C193.646 137.761 193.919 137.691 194.213 137.691C194.493 137.691 194.752 137.74 194.99 137.838C195.242 137.936 195.48 138.041 195.704 138.153C195.942 138.265 196.145 138.349 196.313 138.405C196.481 138.461 196.642 138.489 196.796 138.489C197.034 138.489 197.251 138.391 197.447 138.195C197.657 137.999 197.818 137.789 197.93 137.565L198.938 138.069ZM212.24 147.54C212.24 148.408 212.114 149.192 211.862 149.892C211.61 150.592 211.253 151.194 210.791 151.698C210.343 152.202 209.804 152.594 209.174 152.874C208.544 153.14 207.858 153.273 207.116 153.273C206.374 153.273 205.688 153.14 205.058 152.874C204.428 152.594 203.882 152.202 203.42 151.698C202.972 151.194 202.622 150.592 202.37 149.892C202.118 149.192 201.992 148.408 201.992 147.54C201.992 146.686 202.118 145.909 202.37 145.209C202.622 144.495 202.972 143.886 203.42 143.382C203.882 142.878 204.428 142.493 205.058 142.227C205.688 141.947 206.374 141.807 207.116 141.807C207.858 141.807 208.544 141.947 209.174 142.227C209.804 142.493 210.343 142.878 210.791 143.382C211.253 143.886 211.61 144.495 211.862 145.209C212.114 145.909 212.24 146.686 212.24 147.54ZM210.203 147.54C210.203 146.308 209.923 145.335 209.363 144.621C208.817 143.893 208.068 143.529 207.116 143.529C206.164 143.529 205.408 143.893 204.848 144.621C204.302 145.335 204.029 146.308 204.029 147.54C204.029 148.772 204.302 149.752 204.848 150.48C205.408 151.194 206.164 151.551 207.116 151.551C208.068 151.551 208.817 151.194 209.363 150.48C209.923 149.752 210.203 148.772 210.203 147.54Z" fill="#484848"/>
<path d="M42 35H97" stroke="#E1251B"/>
<path d="M155.856 0V13.75" stroke="#E1251B" stroke-width="2" stroke-miterlimit="10"/>
<path d="M155.856 34.375V55" stroke="#E1251B" stroke-width="2" stroke-miterlimit="10"/>
<path d="M155.857 29.2188C158.697 29.2188 161 26.9102 161 24.0625C161 21.2148 158.697 18.9062 155.857 18.9062C153.016 18.9062 150.714 21.2148 150.714 24.0625C150.714 26.9102 153.016 29.2188 155.857 29.2188Z" stroke="#E1251B" stroke-width="2" stroke-miterlimit="10"/>
<path d="M173 0V27.5" stroke="#E1251B" stroke-width="2" stroke-miterlimit="10"/>
<path d="M173 48.125V55" stroke="#E1251B" stroke-width="2" stroke-miterlimit="10"/>
<path d="M172.999 42.9688C175.84 42.9688 178.142 40.6602 178.142 37.8125C178.142 34.9648 175.84 32.6562 172.999 32.6562C170.159 32.6562 167.856 34.9648 167.856 37.8125C167.856 40.6602 170.159 42.9688 172.999 42.9688Z" stroke="#E1251B" stroke-width="2" stroke-miterlimit="10"/>
<path d="M190.143 0V6.875" stroke="#E1251B" stroke-width="2" stroke-miterlimit="10"/>
<path d="M190.143 27.5V55" stroke="#E1251B" stroke-width="2" stroke-miterlimit="10"/>
<path d="M190.143 22.3438C192.983 22.3438 195.286 20.0352 195.286 17.1875C195.286 14.3398 192.983 12.0312 190.143 12.0312C187.303 12.0312 185 14.3398 185 17.1875C185 20.0352 187.303 22.3438 190.143 22.3438Z" stroke="#E1251B" stroke-width="2" stroke-miterlimit="10"/>
</svg>
