<svg width="273" height="158" viewBox="0 0 273 158" fill="none" xmlns="http://www.w3.org/2000/svg">
<path d="M95.6101 111C95.3721 110.37 95.1481 109.754 94.9381 109.152C94.7281 108.536 94.5111 107.913 94.2871 107.283H87.6931L86.3701 111H84.2491C84.8091 109.46 85.3341 108.039 85.8241 106.737C86.3141 105.421 86.7901 104.175 87.2521 102.999C87.7281 101.823 88.1971 100.703 88.6591 99.639C89.1211 98.561 89.6041 97.497 90.1081 96.447H91.9771C92.4811 97.497 92.9641 98.561 93.4261 99.639C93.8881 100.703 94.3501 101.823 94.8121 102.999C95.2881 104.175 95.7711 105.421 96.2611 106.737C96.7511 108.039 97.2761 109.46 97.8361 111H95.6101ZM93.6991 105.603C93.2511 104.385 92.8031 103.209 92.3551 102.075C91.9211 100.927 91.4661 99.828 90.9901 98.778C90.5001 99.828 90.0311 100.927 89.5831 102.075C89.1491 103.209 88.7151 104.385 88.2811 105.603H93.6991ZM104.165 111.252C103.283 111.252 102.506 111.112 101.834 110.832C101.176 110.552 100.616 110.16 100.154 109.656C99.7063 109.152 99.3703 108.557 99.1463 107.871C98.9223 107.171 98.8103 106.401 98.8103 105.561C98.8103 104.721 98.9293 103.951 99.1673 103.251C99.4193 102.551 99.7693 101.949 100.217 101.445C100.665 100.927 101.211 100.528 101.855 100.248C102.513 99.954 103.241 99.807 104.039 99.807C104.529 99.807 105.019 99.849 105.509 99.933C105.999 100.017 106.468 100.15 106.916 100.332L106.475 101.991C106.181 101.851 105.838 101.739 105.446 101.655C105.068 101.571 104.662 101.529 104.228 101.529C103.136 101.529 102.296 101.872 101.708 102.558C101.134 103.244 100.847 104.245 100.847 105.561C100.847 106.149 100.91 106.688 101.036 107.178C101.176 107.668 101.386 108.088 101.666 108.438C101.96 108.788 102.331 109.061 102.779 109.257C103.227 109.439 103.773 109.53 104.417 109.53C104.935 109.53 105.404 109.481 105.824 109.383C106.244 109.285 106.573 109.18 106.811 109.068L107.084 110.706C106.972 110.776 106.811 110.846 106.601 110.916C106.391 110.972 106.153 111.021 105.887 111.063C105.621 111.119 105.334 111.161 105.026 111.189C104.732 111.231 104.445 111.252 104.165 111.252ZM118.553 105.54C118.553 106.408 118.427 107.192 118.175 107.892C117.923 108.592 117.566 109.194 117.104 109.698C116.656 110.202 116.117 110.594 115.487 110.874C114.857 111.14 114.171 111.273 113.429 111.273C112.687 111.273 112.001 111.14 111.371 110.874C110.741 110.594 110.195 110.202 109.733 109.698C109.285 109.194 108.935 108.592 108.683 107.892C108.431 107.192 108.305 106.408 108.305 105.54C108.305 104.686 108.431 103.909 108.683 103.209C108.935 102.495 109.285 101.886 109.733 101.382C110.195 100.878 110.741 100.493 111.371 100.227C112.001 99.947 112.687 99.807 113.429 99.807C114.171 99.807 114.857 99.947 115.487 100.227C116.117 100.493 116.656 100.878 117.104 101.382C117.566 101.886 117.923 102.495 118.175 103.209C118.427 103.909 118.553 104.686 118.553 105.54ZM116.516 105.54C116.516 104.308 116.236 103.335 115.676 102.621C115.13 101.893 114.381 101.529 113.429 101.529C112.477 101.529 111.721 101.893 111.161 102.621C110.615 103.335 110.342 104.308 110.342 105.54C110.342 106.772 110.615 107.752 111.161 108.48C111.721 109.194 112.477 109.551 113.429 109.551C114.381 109.551 115.13 109.194 115.676 108.48C116.236 107.752 116.516 106.772 116.516 105.54ZM121.301 100.395C121.749 100.283 122.344 100.164 123.086 100.038C123.828 99.912 124.682 99.849 125.648 99.849C126.516 99.849 127.237 99.975 127.811 100.227C128.385 100.465 128.84 100.808 129.176 101.256C129.526 101.69 129.771 102.215 129.911 102.831C130.051 103.447 130.121 104.126 130.121 104.868V111H128.168V105.288C128.168 104.616 128.119 104.042 128.021 103.566C127.937 103.09 127.79 102.705 127.58 102.411C127.37 102.117 127.09 101.907 126.74 101.781C126.39 101.641 125.956 101.571 125.438 101.571C125.228 101.571 125.011 101.578 124.787 101.592C124.563 101.606 124.346 101.627 124.136 101.655C123.94 101.669 123.758 101.69 123.59 101.718C123.436 101.746 123.324 101.767 123.254 101.781V111H121.301V100.395ZM135.901 109.593C136.699 109.593 137.287 109.488 137.665 109.278C138.057 109.068 138.253 108.732 138.253 108.27C138.253 107.794 138.064 107.416 137.686 107.136C137.308 106.856 136.685 106.541 135.817 106.191C135.397 106.023 134.991 105.855 134.599 105.687C134.221 105.505 133.892 105.295 133.612 105.057C133.332 104.819 133.108 104.532 132.94 104.196C132.772 103.86 132.688 103.447 132.688 102.957C132.688 101.991 133.045 101.228 133.759 100.668C134.473 100.094 135.446 99.807 136.678 99.807C136.986 99.807 137.294 99.828 137.602 99.87C137.91 99.898 138.197 99.94 138.463 99.996C138.729 100.038 138.96 100.087 139.156 100.143C139.366 100.199 139.527 100.248 139.639 100.29L139.282 101.97C139.072 101.858 138.743 101.746 138.295 101.634C137.847 101.508 137.308 101.445 136.678 101.445C136.132 101.445 135.656 101.557 135.25 101.781C134.844 101.991 134.641 102.327 134.641 102.789C134.641 103.027 134.683 103.237 134.767 103.419C134.865 103.601 135.005 103.769 135.187 103.923C135.383 104.063 135.621 104.196 135.901 104.322C136.181 104.448 136.517 104.581 136.909 104.721C137.427 104.917 137.889 105.113 138.295 105.309C138.701 105.491 139.044 105.708 139.324 105.96C139.618 106.212 139.842 106.52 139.996 106.884C140.15 107.234 140.227 107.668 140.227 108.186C140.227 109.194 139.849 109.957 139.093 110.475C138.351 110.993 137.287 111.252 135.901 111.252C134.935 111.252 134.179 111.168 133.633 111C133.087 110.846 132.716 110.727 132.52 110.643L132.877 108.963C133.101 109.047 133.458 109.173 133.948 109.341C134.438 109.509 135.089 109.593 135.901 109.593ZM142.123 105.561C142.123 104.595 142.263 103.755 142.543 103.041C142.823 102.313 143.194 101.711 143.656 101.235C144.118 100.759 144.65 100.402 145.252 100.164C145.854 99.926 146.47 99.807 147.1 99.807C148.57 99.807 149.697 100.269 150.481 101.193C151.265 102.103 151.657 103.496 151.657 105.372C151.657 105.456 151.657 105.568 151.657 105.708C151.657 105.834 151.65 105.953 151.636 106.065H144.16C144.244 107.199 144.573 108.06 145.147 108.648C145.721 109.236 146.617 109.53 147.835 109.53C148.521 109.53 149.095 109.474 149.557 109.362C150.033 109.236 150.39 109.117 150.628 109.005L150.901 110.643C150.663 110.769 150.243 110.902 149.641 111.042C149.053 111.182 148.381 111.252 147.625 111.252C146.673 111.252 145.847 111.112 145.147 110.832C144.461 110.538 143.894 110.139 143.446 109.635C142.998 109.131 142.662 108.536 142.438 107.85C142.228 107.15 142.123 106.387 142.123 105.561ZM149.62 104.49C149.634 103.608 149.41 102.887 148.948 102.327C148.5 101.753 147.877 101.466 147.079 101.466C146.631 101.466 146.232 101.557 145.882 101.739C145.546 101.907 145.259 102.131 145.021 102.411C144.783 102.691 144.594 103.013 144.454 103.377C144.328 103.741 144.244 104.112 144.202 104.49H149.62ZM157.738 111.21C156.534 111.182 155.68 110.923 155.176 110.433C154.672 109.943 154.42 109.18 154.42 108.144V95.04L156.373 94.704V107.829C156.373 108.151 156.401 108.417 156.457 108.627C156.513 108.837 156.604 109.005 156.73 109.131C156.856 109.257 157.024 109.355 157.234 109.425C157.444 109.481 157.703 109.53 158.011 109.572L157.738 111.21ZM160.204 111V95.04L162.157 94.704V100.29C162.521 100.15 162.906 100.045 163.312 99.975C163.732 99.891 164.145 99.849 164.551 99.849C165.419 99.849 166.14 99.975 166.714 100.227C167.288 100.465 167.743 100.808 168.079 101.256C168.429 101.69 168.674 102.215 168.814 102.831C168.954 103.447 169.024 104.126 169.024 104.868V111H167.071V105.288C167.071 104.616 167.022 104.042 166.924 103.566C166.84 103.09 166.693 102.705 166.483 102.411C166.273 102.117 165.993 101.907 165.643 101.781C165.293 101.641 164.859 101.571 164.341 101.571C164.131 101.571 163.914 101.585 163.69 101.613C163.466 101.641 163.249 101.676 163.039 101.718C162.843 101.746 162.661 101.781 162.493 101.823C162.339 101.865 162.227 101.9 162.157 101.928V111H160.204ZM175.897 109.593C176.359 109.593 176.765 109.586 177.115 109.572C177.479 109.544 177.78 109.502 178.018 109.446V106.191C177.878 106.121 177.647 106.065 177.325 106.023C177.017 105.967 176.639 105.939 176.191 105.939C175.897 105.939 175.582 105.96 175.246 106.002C174.924 106.044 174.623 106.135 174.343 106.275C174.077 106.401 173.853 106.583 173.671 106.821C173.489 107.045 173.398 107.346 173.398 107.724C173.398 108.424 173.622 108.914 174.07 109.194C174.518 109.46 175.127 109.593 175.897 109.593ZM175.729 99.807C176.513 99.807 177.171 99.912 177.703 100.122C178.249 100.318 178.683 100.605 179.005 100.983C179.341 101.347 179.579 101.788 179.719 102.306C179.859 102.81 179.929 103.37 179.929 103.986V110.811C179.761 110.839 179.523 110.881 179.215 110.937C178.921 110.979 178.585 111.021 178.207 111.063C177.829 111.105 177.416 111.14 176.968 111.168C176.534 111.21 176.1 111.231 175.666 111.231C175.05 111.231 174.483 111.168 173.965 111.042C173.447 110.916 172.999 110.72 172.621 110.454C172.243 110.174 171.949 109.81 171.739 109.362C171.529 108.914 171.424 108.375 171.424 107.745C171.424 107.143 171.543 106.625 171.781 106.191C172.033 105.757 172.369 105.407 172.789 105.141C173.209 104.875 173.699 104.679 174.259 104.553C174.819 104.427 175.407 104.364 176.023 104.364C176.219 104.364 176.422 104.378 176.632 104.406C176.842 104.42 177.038 104.448 177.22 104.49C177.416 104.518 177.584 104.546 177.724 104.574C177.864 104.602 177.962 104.623 178.018 104.637V104.091C178.018 103.769 177.983 103.454 177.913 103.146C177.843 102.824 177.717 102.544 177.535 102.306C177.353 102.054 177.101 101.858 176.779 101.718C176.471 101.564 176.065 101.487 175.561 101.487C174.917 101.487 174.35 101.536 173.86 101.634C173.384 101.718 173.027 101.809 172.789 101.907L172.558 100.29C172.81 100.178 173.23 100.073 173.818 99.975C174.406 99.863 175.043 99.807 175.729 99.807ZM183.173 100.395C183.621 100.283 184.209 100.164 184.937 100.038C185.679 99.912 186.533 99.849 187.499 99.849C188.199 99.849 188.787 99.947 189.263 100.143C189.739 100.325 190.138 100.598 190.46 100.962C190.558 100.892 190.712 100.794 190.922 100.668C191.132 100.542 191.391 100.423 191.699 100.311C192.007 100.185 192.35 100.08 192.728 99.996C193.106 99.898 193.512 99.849 193.946 99.849C194.786 99.849 195.472 99.975 196.004 100.227C196.536 100.465 196.949 100.808 197.243 101.256C197.551 101.704 197.754 102.236 197.852 102.852C197.964 103.468 198.02 104.14 198.02 104.868V111H196.067V105.288C196.067 104.644 196.032 104.091 195.962 103.629C195.906 103.167 195.787 102.782 195.605 102.474C195.437 102.166 195.199 101.942 194.891 101.802C194.597 101.648 194.212 101.571 193.736 101.571C193.078 101.571 192.532 101.662 192.098 101.844C191.678 102.012 191.391 102.166 191.237 102.306C191.349 102.67 191.433 103.069 191.489 103.503C191.545 103.937 191.573 104.392 191.573 104.868V111H189.62V105.288C189.62 104.644 189.585 104.091 189.515 103.629C189.445 103.167 189.319 102.782 189.137 102.474C188.969 102.166 188.731 101.942 188.423 101.802C188.129 101.648 187.751 101.571 187.289 101.571C187.093 101.571 186.883 101.578 186.659 101.592C186.435 101.606 186.218 101.627 186.008 101.655C185.812 101.669 185.63 101.69 185.462 101.718C185.294 101.746 185.182 101.767 185.126 101.781V111H183.173V100.395ZM200.652 105.561C200.652 104.595 200.792 103.755 201.072 103.041C201.352 102.313 201.723 101.711 202.185 101.235C202.647 100.759 203.179 100.402 203.781 100.164C204.383 99.926 204.999 99.807 205.629 99.807C207.099 99.807 208.226 100.269 209.01 101.193C209.794 102.103 210.186 103.496 210.186 105.372C210.186 105.456 210.186 105.568 210.186 105.708C210.186 105.834 210.179 105.953 210.165 106.065H202.689C202.773 107.199 203.102 108.06 203.676 108.648C204.25 109.236 205.146 109.53 206.364 109.53C207.05 109.53 207.624 109.474 208.086 109.362C208.562 109.236 208.919 109.117 209.157 109.005L209.43 110.643C209.192 110.769 208.772 110.902 208.17 111.042C207.582 111.182 206.91 111.252 206.154 111.252C205.202 111.252 204.376 111.112 203.676 110.832C202.99 110.538 202.423 110.139 201.975 109.635C201.527 109.131 201.191 108.536 200.967 107.85C200.757 107.15 200.652 106.387 200.652 105.561ZM208.149 104.49C208.163 103.608 207.939 102.887 207.477 102.327C207.029 101.753 206.406 101.466 205.608 101.466C205.16 101.466 204.761 101.557 204.411 101.739C204.075 101.907 203.788 102.131 203.55 102.411C203.312 102.691 203.123 103.013 202.983 103.377C202.857 103.741 202.773 104.112 202.731 104.49H208.149ZM212.992 100.395C213.44 100.283 214.035 100.164 214.777 100.038C215.519 99.912 216.373 99.849 217.339 99.849C218.207 99.849 218.928 99.975 219.502 100.227C220.076 100.465 220.531 100.808 220.867 101.256C221.217 101.69 221.462 102.215 221.602 102.831C221.742 103.447 221.812 104.126 221.812 104.868V111H219.859V105.288C219.859 104.616 219.81 104.042 219.712 103.566C219.628 103.09 219.481 102.705 219.271 102.411C219.061 102.117 218.781 101.907 218.431 101.781C218.081 101.641 217.647 101.571 217.129 101.571C216.919 101.571 216.702 101.578 216.478 101.592C216.254 101.606 216.037 101.627 215.827 101.655C215.631 101.669 215.449 101.69 215.281 101.718C215.127 101.746 215.015 101.767 214.945 101.781V111H212.992V100.395ZM226.877 100.08H231.014V101.718H226.877V106.758C226.877 107.304 226.919 107.759 227.003 108.123C227.087 108.473 227.213 108.753 227.381 108.963C227.549 109.159 227.759 109.299 228.011 109.383C228.263 109.467 228.557 109.509 228.893 109.509C229.481 109.509 229.95 109.446 230.3 109.32C230.664 109.18 230.916 109.082 231.056 109.026L231.434 110.643C231.238 110.741 230.895 110.86 230.405 111C229.915 111.154 229.355 111.231 228.725 111.231C227.983 111.231 227.367 111.14 226.877 110.958C226.401 110.762 226.016 110.475 225.722 110.097C225.428 109.719 225.218 109.257 225.092 108.711C224.98 108.151 224.924 107.507 224.924 106.779V97.035L226.877 96.699V100.08ZM242.851 105.54C242.851 106.408 242.725 107.192 242.473 107.892C242.221 108.592 241.864 109.194 241.402 109.698C240.954 110.202 240.415 110.594 239.785 110.874C239.155 111.14 238.469 111.273 237.727 111.273C236.985 111.273 236.299 111.14 235.669 110.874C235.039 110.594 234.493 110.202 234.031 109.698C233.583 109.194 233.233 108.592 232.981 107.892C232.729 107.192 232.603 106.408 232.603 105.54C232.603 104.686 232.729 103.909 232.981 103.209C233.233 102.495 233.583 101.886 234.031 101.382C234.493 100.878 235.039 100.493 235.669 100.227C236.299 99.947 236.985 99.807 237.727 99.807C238.469 99.807 239.155 99.947 239.785 100.227C240.415 100.493 240.954 100.878 241.402 101.382C241.864 101.886 242.221 102.495 242.473 103.209C242.725 103.909 242.851 104.686 242.851 105.54ZM240.814 105.54C240.814 104.308 240.534 103.335 239.974 102.621C239.428 101.893 238.679 101.529 237.727 101.529C236.775 101.529 236.019 101.893 235.459 102.621C234.913 103.335 234.64 104.308 234.64 105.54C234.64 106.772 234.913 107.752 235.459 108.48C236.019 109.194 236.775 109.551 237.727 109.551C238.679 109.551 239.428 109.194 239.974 108.48C240.534 107.752 240.814 106.772 240.814 105.54ZM78.2844 135.252C77.4024 135.252 76.6254 135.112 75.9534 134.832C75.2954 134.552 74.7354 134.16 74.2734 133.656C73.8254 133.152 73.4894 132.557 73.2654 131.871C73.0414 131.171 72.9294 130.401 72.9294 129.561C72.9294 128.721 73.0484 127.951 73.2864 127.251C73.5384 126.551 73.8884 125.949 74.3364 125.445C74.7844 124.927 75.3304 124.528 75.9744 124.248C76.6324 123.954 77.3604 123.807 78.1584 123.807C78.6484 123.807 79.1384 123.849 79.6284 123.933C80.1184 124.017 80.5874 124.15 81.0354 124.332L80.5944 125.991C80.3004 125.851 79.9574 125.739 79.5654 125.655C79.1874 125.571 78.7814 125.529 78.3474 125.529C77.2554 125.529 76.4154 125.872 75.8274 126.558C75.2534 127.244 74.9664 128.245 74.9664 129.561C74.9664 130.149 75.0294 130.688 75.1554 131.178C75.2954 131.668 75.5054 132.088 75.7854 132.438C76.0794 132.788 76.4504 133.061 76.8984 133.257C77.3464 133.439 77.8924 133.53 78.5364 133.53C79.0544 133.53 79.5234 133.481 79.9434 133.383C80.3634 133.285 80.6924 133.18 80.9304 133.068L81.2034 134.706C81.0914 134.776 80.9304 134.846 80.7204 134.916C80.5104 134.972 80.2724 135.021 80.0064 135.063C79.7404 135.119 79.4534 135.161 79.1454 135.189C78.8514 135.231 78.5644 135.252 78.2844 135.252ZM92.6725 129.54C92.6725 130.408 92.5465 131.192 92.2945 131.892C92.0425 132.592 91.6855 133.194 91.2235 133.698C90.7755 134.202 90.2365 134.594 89.6065 134.874C88.9765 135.14 88.2905 135.273 87.5485 135.273C86.8065 135.273 86.1205 135.14 85.4905 134.874C84.8605 134.594 84.3145 134.202 83.8525 133.698C83.4045 133.194 83.0545 132.592 82.8025 131.892C82.5505 131.192 82.4245 130.408 82.4245 129.54C82.4245 128.686 82.5505 127.909 82.8025 127.209C83.0545 126.495 83.4045 125.886 83.8525 125.382C84.3145 124.878 84.8605 124.493 85.4905 124.227C86.1205 123.947 86.8065 123.807 87.5485 123.807C88.2905 123.807 88.9765 123.947 89.6065 124.227C90.2365 124.493 90.7755 124.878 91.2235 125.382C91.6855 125.886 92.0425 126.495 92.2945 127.209C92.5465 127.909 92.6725 128.686 92.6725 129.54ZM90.6355 129.54C90.6355 128.308 90.3555 127.335 89.7955 126.621C89.2495 125.893 88.5005 125.529 87.5485 125.529C86.5965 125.529 85.8405 125.893 85.2805 126.621C84.7345 127.335 84.4615 128.308 84.4615 129.54C84.4615 130.772 84.7345 131.752 85.2805 132.48C85.8405 133.194 86.5965 133.551 87.5485 133.551C88.5005 133.551 89.2495 133.194 89.7955 132.48C90.3555 131.752 90.6355 130.772 90.6355 129.54ZM95.4202 124.395C95.8682 124.283 96.4562 124.164 97.1842 124.038C97.9262 123.912 98.7802 123.849 99.7462 123.849C100.446 123.849 101.034 123.947 101.51 124.143C101.986 124.325 102.385 124.598 102.707 124.962C102.805 124.892 102.959 124.794 103.169 124.668C103.379 124.542 103.638 124.423 103.946 124.311C104.254 124.185 104.597 124.08 104.975 123.996C105.353 123.898 105.759 123.849 106.193 123.849C107.033 123.849 107.719 123.975 108.251 124.227C108.783 124.465 109.196 124.808 109.49 125.256C109.798 125.704 110.001 126.236 110.099 126.852C110.211 127.468 110.267 128.14 110.267 128.868V135H108.314V129.288C108.314 128.644 108.279 128.091 108.209 127.629C108.153 127.167 108.034 126.782 107.852 126.474C107.684 126.166 107.446 125.942 107.138 125.802C106.844 125.648 106.459 125.571 105.983 125.571C105.325 125.571 104.779 125.662 104.345 125.844C103.925 126.012 103.638 126.166 103.484 126.306C103.596 126.67 103.68 127.069 103.736 127.503C103.792 127.937 103.82 128.392 103.82 128.868V135H101.867V129.288C101.867 128.644 101.832 128.091 101.762 127.629C101.692 127.167 101.566 126.782 101.384 126.474C101.216 126.166 100.978 125.942 100.67 125.802C100.376 125.648 99.9982 125.571 99.5362 125.571C99.3402 125.571 99.1302 125.578 98.9062 125.592C98.6822 125.606 98.4652 125.627 98.2552 125.655C98.0592 125.669 97.8772 125.69 97.7092 125.718C97.5412 125.746 97.4292 125.767 97.3732 125.781V135H95.4202V124.395ZM112.899 129.561C112.899 128.595 113.039 127.755 113.319 127.041C113.599 126.313 113.97 125.711 114.432 125.235C114.894 124.759 115.426 124.402 116.028 124.164C116.63 123.926 117.246 123.807 117.876 123.807C119.346 123.807 120.473 124.269 121.257 125.193C122.041 126.103 122.433 127.496 122.433 129.372C122.433 129.456 122.433 129.568 122.433 129.708C122.433 129.834 122.426 129.953 122.412 130.065H114.936C115.02 131.199 115.349 132.06 115.923 132.648C116.497 133.236 117.393 133.53 118.611 133.53C119.297 133.53 119.871 133.474 120.333 133.362C120.809 133.236 121.166 133.117 121.404 133.005L121.677 134.643C121.439 134.769 121.019 134.902 120.417 135.042C119.829 135.182 119.157 135.252 118.401 135.252C117.449 135.252 116.623 135.112 115.923 134.832C115.237 134.538 114.67 134.139 114.222 133.635C113.774 133.131 113.438 132.536 113.214 131.85C113.004 131.15 112.899 130.387 112.899 129.561ZM120.396 128.49C120.41 127.608 120.186 126.887 119.724 126.327C119.276 125.753 118.653 125.466 117.855 125.466C117.407 125.466 117.008 125.557 116.658 125.739C116.322 125.907 116.035 126.131 115.797 126.411C115.559 126.691 115.37 127.013 115.23 127.377C115.104 127.741 115.02 128.112 114.978 128.49H120.396ZM129.271 123.849C129.439 123.849 129.628 123.863 129.838 123.891C130.062 123.905 130.279 123.933 130.489 123.975C130.699 124.003 130.888 124.038 131.056 124.08C131.238 124.108 131.371 124.136 131.455 124.164L131.119 125.865C130.965 125.809 130.706 125.746 130.342 125.676C129.992 125.592 129.537 125.55 128.977 125.55C128.613 125.55 128.249 125.592 127.885 125.676C127.535 125.746 127.304 125.795 127.192 125.823V135H125.239V124.542C125.701 124.374 126.275 124.22 126.961 124.08C127.647 123.926 128.417 123.849 129.271 123.849ZM138.085 135.252C137.203 135.252 136.426 135.112 135.754 134.832C135.096 134.552 134.536 134.16 134.074 133.656C133.626 133.152 133.29 132.557 133.066 131.871C132.842 131.171 132.73 130.401 132.73 129.561C132.73 128.721 132.849 127.951 133.087 127.251C133.339 126.551 133.689 125.949 134.137 125.445C134.585 124.927 135.131 124.528 135.775 124.248C136.433 123.954 137.161 123.807 137.959 123.807C138.449 123.807 138.939 123.849 139.429 123.933C139.919 124.017 140.388 124.15 140.836 124.332L140.395 125.991C140.101 125.851 139.758 125.739 139.366 125.655C138.988 125.571 138.582 125.529 138.148 125.529C137.056 125.529 136.216 125.872 135.628 126.558C135.054 127.244 134.767 128.245 134.767 129.561C134.767 130.149 134.83 130.688 134.956 131.178C135.096 131.668 135.306 132.088 135.586 132.438C135.88 132.788 136.251 133.061 136.699 133.257C137.147 133.439 137.693 133.53 138.337 133.53C138.855 133.53 139.324 133.481 139.744 133.383C140.164 133.285 140.493 133.18 140.731 133.068L141.004 134.706C140.892 134.776 140.731 134.846 140.521 134.916C140.311 134.972 140.073 135.021 139.807 135.063C139.541 135.119 139.254 135.161 138.946 135.189C138.652 135.231 138.365 135.252 138.085 135.252ZM145.054 135H143.101V124.08H145.054V135ZM144.067 122.106C143.717 122.106 143.416 121.994 143.164 121.77C142.926 121.532 142.807 121.217 142.807 120.825C142.807 120.433 142.926 120.125 143.164 119.901C143.416 119.663 143.717 119.544 144.067 119.544C144.417 119.544 144.711 119.663 144.949 119.901C145.201 120.125 145.327 120.433 145.327 120.825C145.327 121.217 145.201 121.532 144.949 121.77C144.711 121.994 144.417 122.106 144.067 122.106ZM152.108 133.593C152.57 133.593 152.976 133.586 153.326 133.572C153.69 133.544 153.991 133.502 154.229 133.446V130.191C154.089 130.121 153.858 130.065 153.536 130.023C153.228 129.967 152.85 129.939 152.402 129.939C152.108 129.939 151.793 129.96 151.457 130.002C151.135 130.044 150.834 130.135 150.554 130.275C150.288 130.401 150.064 130.583 149.882 130.821C149.7 131.045 149.609 131.346 149.609 131.724C149.609 132.424 149.833 132.914 150.281 133.194C150.729 133.46 151.338 133.593 152.108 133.593ZM151.94 123.807C152.724 123.807 153.382 123.912 153.914 124.122C154.46 124.318 154.894 124.605 155.216 124.983C155.552 125.347 155.79 125.788 155.93 126.306C156.07 126.81 156.14 127.37 156.14 127.986V134.811C155.972 134.839 155.734 134.881 155.426 134.937C155.132 134.979 154.796 135.021 154.418 135.063C154.04 135.105 153.627 135.14 153.179 135.168C152.745 135.21 152.311 135.231 151.877 135.231C151.261 135.231 150.694 135.168 150.176 135.042C149.658 134.916 149.21 134.72 148.832 134.454C148.454 134.174 148.16 133.81 147.95 133.362C147.74 132.914 147.635 132.375 147.635 131.745C147.635 131.143 147.754 130.625 147.992 130.191C148.244 129.757 148.58 129.407 149 129.141C149.42 128.875 149.91 128.679 150.47 128.553C151.03 128.427 151.618 128.364 152.234 128.364C152.43 128.364 152.633 128.378 152.843 128.406C153.053 128.42 153.249 128.448 153.431 128.49C153.627 128.518 153.795 128.546 153.935 128.574C154.075 128.602 154.173 128.623 154.229 128.637V128.091C154.229 127.769 154.194 127.454 154.124 127.146C154.054 126.824 153.928 126.544 153.746 126.306C153.564 126.054 153.312 125.858 152.99 125.718C152.682 125.564 152.276 125.487 151.772 125.487C151.128 125.487 150.561 125.536 150.071 125.634C149.595 125.718 149.238 125.809 149 125.907L148.769 124.29C149.021 124.178 149.441 124.073 150.029 123.975C150.617 123.863 151.254 123.807 151.94 123.807ZM162.66 135.21C161.456 135.182 160.602 134.923 160.098 134.433C159.594 133.943 159.342 133.18 159.342 132.144V119.04L161.295 118.704V131.829C161.295 132.151 161.323 132.417 161.379 132.627C161.435 132.837 161.526 133.005 161.652 133.131C161.778 133.257 161.946 133.355 162.156 133.425C162.366 133.481 162.625 133.53 162.933 133.572L162.66 135.21ZM169.273 131.136C169.273 130.59 169.357 130.107 169.525 129.687C169.693 129.253 169.917 128.868 170.197 128.532C170.491 128.182 170.827 127.881 171.205 127.629C171.583 127.363 171.975 127.132 172.381 126.936C171.345 125.9 170.827 124.829 170.827 123.723C170.827 123.163 170.918 122.659 171.1 122.211C171.296 121.763 171.555 121.385 171.877 121.077C172.213 120.769 172.605 120.531 173.053 120.363C173.515 120.195 174.019 120.111 174.565 120.111C175.125 120.111 175.622 120.195 176.056 120.363C176.504 120.531 176.875 120.755 177.169 121.035C177.477 121.315 177.708 121.651 177.862 122.043C178.016 122.435 178.093 122.848 178.093 123.282C178.093 123.772 178.009 124.213 177.841 124.605C177.687 124.997 177.47 125.354 177.19 125.676C176.924 125.998 176.616 126.292 176.266 126.558C175.916 126.824 175.545 127.062 175.153 127.272L178.555 130.737C179.031 129.855 179.339 128.875 179.479 127.797L181.096 128.007C181.04 128.581 180.893 129.211 180.655 129.897C180.431 130.569 180.109 131.241 179.689 131.913C180.179 132.445 180.627 132.97 181.033 133.488C181.453 134.006 181.796 134.51 182.062 135H180.004C179.836 134.72 179.626 134.433 179.374 134.139C179.136 133.845 178.884 133.551 178.618 133.257C178.044 133.831 177.379 134.3 176.623 134.664C175.867 135.014 174.999 135.189 174.019 135.189C173.109 135.189 172.353 135.063 171.751 134.811C171.149 134.545 170.659 134.216 170.281 133.824C169.917 133.418 169.658 132.977 169.504 132.501C169.35 132.025 169.273 131.57 169.273 131.136ZM171.226 131.094C171.226 131.346 171.275 131.619 171.373 131.913C171.471 132.207 171.632 132.48 171.856 132.732C172.08 132.97 172.367 133.173 172.717 133.341C173.081 133.495 173.529 133.572 174.061 133.572C174.747 133.572 175.377 133.446 175.951 133.194C176.539 132.942 177.057 132.585 177.505 132.123L173.41 127.986C173.158 128.112 172.899 128.259 172.633 128.427C172.381 128.595 172.15 128.805 171.94 129.057C171.73 129.295 171.555 129.582 171.415 129.918C171.289 130.254 171.226 130.646 171.226 131.094ZM176.329 123.345C176.329 122.869 176.168 122.47 175.846 122.148C175.538 121.812 175.111 121.644 174.565 121.644C173.949 121.644 173.473 121.833 173.137 122.211C172.815 122.575 172.654 123.03 172.654 123.576C172.654 124.486 173.13 125.375 174.082 126.243C174.39 126.089 174.677 125.921 174.943 125.739C175.223 125.557 175.461 125.347 175.657 125.109C175.867 124.871 176.028 124.612 176.14 124.332C176.266 124.038 176.329 123.709 176.329 123.345ZM190.66 124.08H194.797V125.718H190.66V130.758C190.66 131.304 190.702 131.759 190.786 132.123C190.87 132.473 190.996 132.753 191.164 132.963C191.332 133.159 191.542 133.299 191.794 133.383C192.046 133.467 192.34 133.509 192.676 133.509C193.264 133.509 193.733 133.446 194.083 133.32C194.447 133.18 194.699 133.082 194.839 133.026L195.217 134.643C195.021 134.741 194.678 134.86 194.188 135C193.698 135.154 193.138 135.231 192.508 135.231C191.766 135.231 191.15 135.14 190.66 134.958C190.184 134.762 189.799 134.475 189.505 134.097C189.211 133.719 189.001 133.257 188.875 132.711C188.763 132.151 188.707 131.507 188.707 130.779V121.035L190.66 120.699V124.08ZM196.468 129.561C196.468 128.595 196.608 127.755 196.888 127.041C197.168 126.313 197.539 125.711 198.001 125.235C198.463 124.759 198.995 124.402 199.597 124.164C200.199 123.926 200.815 123.807 201.445 123.807C202.915 123.807 204.042 124.269 204.826 125.193C205.61 126.103 206.002 127.496 206.002 129.372C206.002 129.456 206.002 129.568 206.002 129.708C206.002 129.834 205.995 129.953 205.981 130.065H198.505C198.589 131.199 198.918 132.06 199.492 132.648C200.066 133.236 200.962 133.53 202.18 133.53C202.866 133.53 203.44 133.474 203.902 133.362C204.378 133.236 204.735 133.117 204.973 133.005L205.246 134.643C205.008 134.769 204.588 134.902 203.986 135.042C203.398 135.182 202.726 135.252 201.97 135.252C201.018 135.252 200.192 135.112 199.492 134.832C198.806 134.538 198.239 134.139 197.791 133.635C197.343 133.131 197.007 132.536 196.783 131.85C196.573 131.15 196.468 130.387 196.468 129.561ZM203.965 128.49C203.979 127.608 203.755 126.887 203.293 126.327C202.845 125.753 202.222 125.466 201.424 125.466C200.976 125.466 200.577 125.557 200.227 125.739C199.891 125.907 199.604 126.131 199.366 126.411C199.128 126.691 198.939 127.013 198.799 127.377C198.673 127.741 198.589 128.112 198.547 128.49H203.965ZM203.944 119.943L200.983 122.82L199.996 121.938L202.684 118.704L203.944 119.943ZM213.554 135.252C212.672 135.252 211.895 135.112 211.223 134.832C210.565 134.552 210.005 134.16 209.543 133.656C209.095 133.152 208.759 132.557 208.535 131.871C208.311 131.171 208.199 130.401 208.199 129.561C208.199 128.721 208.318 127.951 208.556 127.251C208.808 126.551 209.158 125.949 209.606 125.445C210.054 124.927 210.6 124.528 211.244 124.248C211.902 123.954 212.63 123.807 213.428 123.807C213.918 123.807 214.408 123.849 214.898 123.933C215.388 124.017 215.857 124.15 216.305 124.332L215.864 125.991C215.57 125.851 215.227 125.739 214.835 125.655C214.457 125.571 214.051 125.529 213.617 125.529C212.525 125.529 211.685 125.872 211.097 126.558C210.523 127.244 210.236 128.245 210.236 129.561C210.236 130.149 210.299 130.688 210.425 131.178C210.565 131.668 210.775 132.088 211.055 132.438C211.349 132.788 211.72 133.061 212.168 133.257C212.616 133.439 213.162 133.53 213.806 133.53C214.324 133.53 214.793 133.481 215.213 133.383C215.633 133.285 215.962 133.18 216.2 133.068L216.473 134.706C216.361 134.776 216.2 134.846 215.99 134.916C215.78 134.972 215.542 135.021 215.276 135.063C215.01 135.119 214.723 135.161 214.415 135.189C214.121 135.231 213.834 135.252 213.554 135.252ZM218.57 124.395C219.018 124.283 219.613 124.164 220.355 124.038C221.097 123.912 221.951 123.849 222.917 123.849C223.785 123.849 224.506 123.975 225.08 124.227C225.654 124.465 226.109 124.808 226.445 125.256C226.795 125.69 227.04 126.215 227.18 126.831C227.32 127.447 227.39 128.126 227.39 128.868V135H225.437V129.288C225.437 128.616 225.388 128.042 225.29 127.566C225.206 127.09 225.059 126.705 224.849 126.411C224.639 126.117 224.359 125.907 224.009 125.781C223.659 125.641 223.225 125.571 222.707 125.571C222.497 125.571 222.28 125.578 222.056 125.592C221.832 125.606 221.615 125.627 221.405 125.655C221.209 125.669 221.027 125.69 220.859 125.718C220.705 125.746 220.593 125.767 220.523 125.781V135H218.57V124.395ZM232.581 135H230.628V124.08H232.581V135ZM231.594 122.106C231.244 122.106 230.943 121.994 230.691 121.77C230.453 121.532 230.334 121.217 230.334 120.825C230.334 120.433 230.453 120.125 230.691 119.901C230.943 119.663 231.244 119.544 231.594 119.544C231.944 119.544 232.238 119.663 232.476 119.901C232.728 120.125 232.854 120.433 232.854 120.825C232.854 121.217 232.728 121.532 232.476 121.77C232.238 121.994 231.944 122.106 231.594 122.106ZM240.686 135.252C239.804 135.252 239.027 135.112 238.355 134.832C237.697 134.552 237.137 134.16 236.675 133.656C236.227 133.152 235.891 132.557 235.667 131.871C235.443 131.171 235.331 130.401 235.331 129.561C235.331 128.721 235.45 127.951 235.688 127.251C235.94 126.551 236.29 125.949 236.738 125.445C237.186 124.927 237.732 124.528 238.376 124.248C239.034 123.954 239.762 123.807 240.56 123.807C241.05 123.807 241.54 123.849 242.03 123.933C242.52 124.017 242.989 124.15 243.437 124.332L242.996 125.991C242.702 125.851 242.359 125.739 241.967 125.655C241.589 125.571 241.183 125.529 240.749 125.529C239.657 125.529 238.817 125.872 238.229 126.558C237.655 127.244 237.368 128.245 237.368 129.561C237.368 130.149 237.431 130.688 237.557 131.178C237.697 131.668 237.907 132.088 238.187 132.438C238.481 132.788 238.852 133.061 239.3 133.257C239.748 133.439 240.294 133.53 240.938 133.53C241.456 133.53 241.925 133.481 242.345 133.383C242.765 133.285 243.094 133.18 243.332 133.068L243.605 134.706C243.493 134.776 243.332 134.846 243.122 134.916C242.912 134.972 242.674 135.021 242.408 135.063C242.142 135.119 241.855 135.161 241.547 135.189C241.253 135.231 240.966 135.252 240.686 135.252ZM255.074 129.54C255.074 130.408 254.948 131.192 254.696 131.892C254.444 132.592 254.087 133.194 253.625 133.698C253.177 134.202 252.638 134.594 252.008 134.874C251.378 135.14 250.692 135.273 249.95 135.273C249.208 135.273 248.522 135.14 247.892 134.874C247.262 134.594 246.716 134.202 246.254 133.698C245.806 133.194 245.456 132.592 245.204 131.892C244.952 131.192 244.826 130.408 244.826 129.54C244.826 128.686 244.952 127.909 245.204 127.209C245.456 126.495 245.806 125.886 246.254 125.382C246.716 124.878 247.262 124.493 247.892 124.227C248.522 123.947 249.208 123.807 249.95 123.807C250.692 123.807 251.378 123.947 252.008 124.227C252.638 124.493 253.177 124.878 253.625 125.382C254.087 125.886 254.444 126.495 254.696 127.209C254.948 127.909 255.074 128.686 255.074 129.54ZM253.037 129.54C253.037 128.308 252.757 127.335 252.197 126.621C251.651 125.893 250.902 125.529 249.95 125.529C248.998 125.529 248.242 125.893 247.682 126.621C247.136 127.335 246.863 128.308 246.863 129.54C246.863 130.772 247.136 131.752 247.682 132.48C248.242 133.194 248.998 133.551 249.95 133.551C250.902 133.551 251.651 133.194 252.197 132.48C252.757 131.752 253.037 130.772 253.037 129.54Z" fill="#484848"/>
<path d="M1.62422 28.978C1.62422 25.962 2.15289 23.6393 3.21022 22.01C4.28489 20.3807 5.76689 19.566 7.65622 19.566C9.54555 19.566 11.0189 20.3807 12.0762 22.01C13.1509 23.6393 13.6882 25.962 13.6882 28.978C13.6882 31.994 13.1509 34.3167 12.0762 35.946C11.0189 37.5753 9.54555 38.39 7.65622 38.39C5.76689 38.39 4.28489 37.5753 3.21022 35.946C2.15289 34.3167 1.62422 31.994 1.62422 28.978ZM11.1402 28.978C11.1402 27.99 11.0796 27.054 10.9582 26.17C10.8542 25.286 10.6636 24.5147 10.3862 23.856C10.1262 23.1973 9.77089 22.6773 9.32022 22.296C8.86955 21.8973 8.31489 21.698 7.65622 21.698C6.99755 21.698 6.44289 21.8973 5.99222 22.296C5.54155 22.6773 5.17755 23.1973 4.90022 23.856C4.64022 24.5147 4.44955 25.286 4.32822 26.17C4.22422 27.054 4.17222 27.99 4.17222 28.978C4.17222 29.966 4.22422 30.902 4.32822 31.786C4.44955 32.67 4.64022 33.4413 4.90022 34.1C5.17755 34.7587 5.54155 35.2873 5.99222 35.686C6.44289 36.0673 6.99755 36.258 7.65622 36.258C8.31489 36.258 8.86955 36.0673 9.32022 35.686C9.77089 35.2873 10.1262 34.7587 10.3862 34.1C10.6636 33.4413 10.8542 32.67 10.9582 31.786C11.0796 30.902 11.1402 29.966 11.1402 28.978ZM16.04 31.76C16.3693 30.9973 16.82 30.1133 17.392 29.108C17.964 28.0853 18.6053 27.0367 19.316 25.962C20.044 24.8873 20.8153 23.83 21.63 22.79C22.462 21.75 23.294 20.814 24.126 19.982H26.44V31.422H28.572V33.398H26.44V38H24.1V33.398H16.04V31.76ZM24.1 22.842C23.58 23.3967 23.0513 24.0207 22.514 24.714C21.994 25.39 21.4827 26.1007 20.98 26.846C20.4773 27.5913 20.0007 28.354 19.55 29.134C19.1167 29.914 18.7267 30.6767 18.38 31.422H24.1V22.842Z" fill="#484848"/>
<path d="M38 28H93" stroke="#484848"/>
<path d="M170.18 13.7812C170.18 20.5494 164.634 26.0312 157.788 26.0312C150.942 26.0312 145.396 20.5494 145.396 13.7812C145.396 7.01312 150.942 1.53125 157.788 1.53125C164.619 1.53125 170.18 7.01312 170.18 13.7812Z" stroke="white" stroke-width="2" stroke-miterlimit="10"/>
<path d="M174.826 7.65625C179.953 7.65625 184.12 11.76 184.12 16.8438C184.12 21.9122 179.953 26.0312 174.826 26.0312" stroke="white" stroke-width="2" stroke-miterlimit="10"/>
<path d="M179.474 32.1104L185.669 33.6875L187.218 44.4063H179.474" stroke="white" stroke-width="2" stroke-miterlimit="10"/>
<path d="M166.865 32.1562L173.231 34.1928L174.827 47.4688H140.75L142.33 34.1928L148.696 32.1562" stroke="white" stroke-width="2" stroke-miterlimit="10"/>
</svg>
