<svg width="274" height="158" viewBox="0 0 274 158" fill="none" xmlns="http://www.w3.org/2000/svg">
<path d="M2.62422 31.978C2.62422 28.962 3.15289 26.6393 4.21022 25.01C5.28489 23.3807 6.76689 22.566 8.65622 22.566C10.5456 22.566 12.0189 23.3807 13.0762 25.01C14.1509 26.6393 14.6882 28.962 14.6882 31.978C14.6882 34.994 14.1509 37.3167 13.0762 38.946C12.0189 40.5753 10.5456 41.39 8.65622 41.39C6.76689 41.39 5.28489 40.5753 4.21022 38.946C3.15289 37.3167 2.62422 34.994 2.62422 31.978ZM12.1402 31.978C12.1402 30.99 12.0796 30.054 11.9582 29.17C11.8542 28.286 11.6636 27.5147 11.3862 26.856C11.1262 26.1973 10.7709 25.6773 10.3202 25.296C9.86955 24.8973 9.31489 24.698 8.65622 24.698C7.99755 24.698 7.44289 24.8973 6.99222 25.296C6.54155 25.6773 6.17755 26.1973 5.90022 26.856C5.64022 27.5147 5.44955 28.286 5.32822 29.17C5.22422 30.054 5.17222 30.99 5.17222 31.978C5.17222 32.966 5.22422 33.902 5.32822 34.786C5.44955 35.67 5.64022 36.4413 5.90022 37.1C6.17755 37.7587 6.54155 38.2873 6.99222 38.686C7.44289 39.0673 7.99755 39.258 8.65622 39.258C9.31489 39.258 9.86955 39.0673 10.3202 38.686C10.7709 38.2873 11.1262 37.7587 11.3862 37.1C11.6636 36.4413 11.8542 35.67 11.9582 34.786C12.0796 33.902 12.1402 32.966 12.1402 31.978ZM21.174 29.924C23.7913 30.028 25.7067 30.6 26.92 31.64C28.1507 32.68 28.766 34.0927 28.766 35.878C28.766 36.6753 28.6273 37.412 28.35 38.088C28.09 38.764 27.6827 39.3447 27.128 39.83C26.5907 40.3153 25.906 40.6967 25.074 40.974C24.242 41.2513 23.254 41.39 22.11 41.39C21.6593 41.39 21.2 41.3553 20.732 41.286C20.264 41.2167 19.8307 41.13 19.432 41.026C19.0333 40.922 18.678 40.818 18.366 40.714C18.054 40.61 17.8287 40.5233 17.69 40.454L18.158 38.348C18.4527 38.4867 18.9293 38.6687 19.588 38.894C20.264 39.1193 21.0873 39.232 22.058 39.232C22.838 39.232 23.488 39.1453 24.008 38.972C24.5453 38.7987 24.9787 38.5647 25.308 38.27C25.6373 37.9753 25.8713 37.6373 26.01 37.256C26.166 36.8573 26.244 36.4413 26.244 36.008C26.244 35.3493 26.1313 34.7687 25.906 34.266C25.6807 33.746 25.282 33.3127 24.71 32.966C24.138 32.6193 23.3753 32.3593 22.422 32.186C21.4687 31.9953 20.264 31.9 18.808 31.9C18.912 31.0507 18.99 30.2533 19.042 29.508C19.1113 28.7627 19.172 28.0347 19.224 27.324C19.276 26.6133 19.3193 25.9113 19.354 25.218C19.3887 24.5073 19.4233 23.762 19.458 22.982H28.142V25.036H21.564C21.5467 25.296 21.5207 25.6513 21.486 26.102C21.4513 26.5353 21.4167 26.9947 21.382 27.48C21.3473 27.948 21.3127 28.4073 21.278 28.858C21.2433 29.3087 21.2087 29.664 21.174 29.924Z" fill="#484848"/>
<path d="M131.476 111V96.447H140.254V98.19H133.513V102.579H139.498V104.301H133.513V111H131.476ZM151.982 105.54C151.982 106.408 151.856 107.192 151.604 107.892C151.352 108.592 150.995 109.194 150.533 109.698C150.085 110.202 149.546 110.594 148.916 110.874C148.286 111.14 147.6 111.273 146.858 111.273C146.116 111.273 145.43 111.14 144.8 110.874C144.17 110.594 143.624 110.202 143.162 109.698C142.714 109.194 142.364 108.592 142.112 107.892C141.86 107.192 141.734 106.408 141.734 105.54C141.734 104.686 141.86 103.909 142.112 103.209C142.364 102.495 142.714 101.886 143.162 101.382C143.624 100.878 144.17 100.493 144.8 100.227C145.43 99.947 146.116 99.807 146.858 99.807C147.6 99.807 148.286 99.947 148.916 100.227C149.546 100.493 150.085 100.878 150.533 101.382C150.995 101.886 151.352 102.495 151.604 103.209C151.856 103.909 151.982 104.686 151.982 105.54ZM149.945 105.54C149.945 104.308 149.665 103.335 149.105 102.621C148.559 101.893 147.81 101.529 146.858 101.529C145.906 101.529 145.15 101.893 144.59 102.621C144.044 103.335 143.771 104.308 143.771 105.54C143.771 106.772 144.044 107.752 144.59 108.48C145.15 109.194 145.906 109.551 146.858 109.551C147.81 109.551 148.559 109.194 149.105 108.48C149.665 107.752 149.945 106.772 149.945 105.54ZM158.761 99.849C158.929 99.849 159.118 99.863 159.328 99.891C159.552 99.905 159.769 99.933 159.979 99.975C160.189 100.003 160.378 100.038 160.546 100.08C160.728 100.108 160.861 100.136 160.945 100.164L160.609 101.865C160.455 101.809 160.196 101.746 159.832 101.676C159.482 101.592 159.027 101.55 158.467 101.55C158.103 101.55 157.739 101.592 157.375 101.676C157.025 101.746 156.794 101.795 156.682 101.823V111H154.729V100.542C155.191 100.374 155.765 100.22 156.451 100.08C157.137 99.926 157.907 99.849 158.761 99.849ZM162.83 100.395C163.278 100.283 163.866 100.164 164.594 100.038C165.336 99.912 166.19 99.849 167.156 99.849C167.856 99.849 168.444 99.947 168.92 100.143C169.396 100.325 169.795 100.598 170.117 100.962C170.215 100.892 170.369 100.794 170.579 100.668C170.789 100.542 171.048 100.423 171.356 100.311C171.664 100.185 172.007 100.08 172.385 99.996C172.763 99.898 173.169 99.849 173.603 99.849C174.443 99.849 175.129 99.975 175.661 100.227C176.193 100.465 176.606 100.808 176.9 101.256C177.208 101.704 177.411 102.236 177.509 102.852C177.621 103.468 177.677 104.14 177.677 104.868V111H175.724V105.288C175.724 104.644 175.689 104.091 175.619 103.629C175.563 103.167 175.444 102.782 175.262 102.474C175.094 102.166 174.856 101.942 174.548 101.802C174.254 101.648 173.869 101.571 173.393 101.571C172.735 101.571 172.189 101.662 171.755 101.844C171.335 102.012 171.048 102.166 170.894 102.306C171.006 102.67 171.09 103.069 171.146 103.503C171.202 103.937 171.23 104.392 171.23 104.868V111H169.277V105.288C169.277 104.644 169.242 104.091 169.172 103.629C169.102 103.167 168.976 102.782 168.794 102.474C168.626 102.166 168.388 101.942 168.08 101.802C167.786 101.648 167.408 101.571 166.946 101.571C166.75 101.571 166.54 101.578 166.316 101.592C166.092 101.606 165.875 101.627 165.665 101.655C165.469 101.669 165.287 101.69 165.119 101.718C164.951 101.746 164.839 101.767 164.783 101.781V111H162.83V100.395ZM184.614 109.593C185.076 109.593 185.482 109.586 185.832 109.572C186.196 109.544 186.497 109.502 186.735 109.446V106.191C186.595 106.121 186.364 106.065 186.042 106.023C185.734 105.967 185.356 105.939 184.908 105.939C184.614 105.939 184.299 105.96 183.963 106.002C183.641 106.044 183.34 106.135 183.06 106.275C182.794 106.401 182.57 106.583 182.388 106.821C182.206 107.045 182.115 107.346 182.115 107.724C182.115 108.424 182.339 108.914 182.787 109.194C183.235 109.46 183.844 109.593 184.614 109.593ZM184.446 99.807C185.23 99.807 185.888 99.912 186.42 100.122C186.966 100.318 187.4 100.605 187.722 100.983C188.058 101.347 188.296 101.788 188.436 102.306C188.576 102.81 188.646 103.37 188.646 103.986V110.811C188.478 110.839 188.24 110.881 187.932 110.937C187.638 110.979 187.302 111.021 186.924 111.063C186.546 111.105 186.133 111.14 185.685 111.168C185.251 111.21 184.817 111.231 184.383 111.231C183.767 111.231 183.2 111.168 182.682 111.042C182.164 110.916 181.716 110.72 181.338 110.454C180.96 110.174 180.666 109.81 180.456 109.362C180.246 108.914 180.141 108.375 180.141 107.745C180.141 107.143 180.26 106.625 180.498 106.191C180.75 105.757 181.086 105.407 181.506 105.141C181.926 104.875 182.416 104.679 182.976 104.553C183.536 104.427 184.124 104.364 184.74 104.364C184.936 104.364 185.139 104.378 185.349 104.406C185.559 104.42 185.755 104.448 185.937 104.49C186.133 104.518 186.301 104.546 186.441 104.574C186.581 104.602 186.679 104.623 186.735 104.637V104.091C186.735 103.769 186.7 103.454 186.63 103.146C186.56 102.824 186.434 102.544 186.252 102.306C186.07 102.054 185.818 101.858 185.496 101.718C185.188 101.564 184.782 101.487 184.278 101.487C183.634 101.487 183.067 101.536 182.577 101.634C182.101 101.718 181.744 101.809 181.506 101.907L181.275 100.29C181.527 100.178 181.947 100.073 182.535 99.975C183.123 99.863 183.76 99.807 184.446 99.807ZM196.887 111.252L196.656 111.777C197.062 111.973 197.356 112.183 197.538 112.407C197.72 112.645 197.811 112.988 197.811 113.436C197.811 113.59 197.776 113.758 197.706 113.94C197.636 114.122 197.517 114.29 197.349 114.444C197.181 114.598 196.957 114.724 196.677 114.822C196.397 114.92 196.054 114.969 195.648 114.969C195.284 114.969 194.948 114.941 194.64 114.885C194.346 114.829 194.108 114.766 193.926 114.696L194.157 113.499C194.325 113.555 194.5 113.604 194.682 113.646C194.878 113.688 195.095 113.709 195.333 113.709C195.837 113.709 196.089 113.548 196.089 113.226C196.089 113.072 196.012 112.939 195.858 112.827C195.704 112.729 195.487 112.624 195.207 112.512L195.06 112.449C195.116 112.281 195.193 112.078 195.291 111.84C195.389 111.602 195.494 111.378 195.606 111.168C194.892 111.07 194.262 110.867 193.716 110.559C193.184 110.237 192.736 109.831 192.372 109.341C192.008 108.851 191.735 108.291 191.553 107.661C191.371 107.017 191.28 106.317 191.28 105.561C191.28 104.721 191.399 103.951 191.637 103.251C191.889 102.551 192.239 101.949 192.687 101.445C193.135 100.927 193.681 100.528 194.325 100.248C194.983 99.954 195.711 99.807 196.509 99.807C196.999 99.807 197.489 99.849 197.979 99.933C198.469 100.017 198.938 100.15 199.386 100.332L198.945 101.991C198.651 101.851 198.308 101.739 197.916 101.655C197.538 101.571 197.132 101.529 196.698 101.529C195.606 101.529 194.766 101.872 194.178 102.558C193.604 103.244 193.317 104.245 193.317 105.561C193.317 106.149 193.38 106.688 193.506 107.178C193.646 107.668 193.856 108.088 194.136 108.438C194.43 108.788 194.801 109.061 195.249 109.257C195.697 109.439 196.243 109.53 196.887 109.53C197.405 109.53 197.874 109.481 198.294 109.383C198.714 109.285 199.043 109.18 199.281 109.068L199.554 110.706C199.442 110.762 199.288 110.825 199.092 110.895C198.91 110.951 198.7 111 198.462 111.042C198.224 111.098 197.965 111.14 197.685 111.168C197.419 111.21 197.153 111.238 196.887 111.252ZM205.347 109.593C205.809 109.593 206.215 109.586 206.565 109.572C206.929 109.544 207.23 109.502 207.468 109.446V106.191C207.328 106.121 207.097 106.065 206.775 106.023C206.467 105.967 206.089 105.939 205.641 105.939C205.347 105.939 205.032 105.96 204.696 106.002C204.374 106.044 204.073 106.135 203.793 106.275C203.527 106.401 203.303 106.583 203.121 106.821C202.939 107.045 202.848 107.346 202.848 107.724C202.848 108.424 203.072 108.914 203.52 109.194C203.968 109.46 204.577 109.593 205.347 109.593ZM205.179 99.807C205.963 99.807 206.621 99.912 207.153 100.122C207.699 100.318 208.133 100.605 208.455 100.983C208.791 101.347 209.029 101.788 209.169 102.306C209.309 102.81 209.379 103.37 209.379 103.986V110.811C209.211 110.839 208.973 110.881 208.665 110.937C208.371 110.979 208.035 111.021 207.657 111.063C207.279 111.105 206.866 111.14 206.418 111.168C205.984 111.21 205.55 111.231 205.116 111.231C204.5 111.231 203.933 111.168 203.415 111.042C202.897 110.916 202.449 110.72 202.071 110.454C201.693 110.174 201.399 109.81 201.189 109.362C200.979 108.914 200.874 108.375 200.874 107.745C200.874 107.143 200.993 106.625 201.231 106.191C201.483 105.757 201.819 105.407 202.239 105.141C202.659 104.875 203.149 104.679 203.709 104.553C204.269 104.427 204.857 104.364 205.473 104.364C205.669 104.364 205.872 104.378 206.082 104.406C206.292 104.42 206.488 104.448 206.67 104.49C206.866 104.518 207.034 104.546 207.174 104.574C207.314 104.602 207.412 104.623 207.468 104.637V104.091C207.468 103.769 207.433 103.454 207.363 103.146C207.293 102.824 207.167 102.544 206.985 102.306C206.803 102.054 206.551 101.858 206.229 101.718C205.921 101.564 205.515 101.487 205.011 101.487C204.367 101.487 203.8 101.536 203.31 101.634C202.834 101.718 202.477 101.809 202.239 101.907L202.008 100.29C202.26 100.178 202.68 100.073 203.268 99.975C203.856 99.863 204.493 99.807 205.179 99.807ZM208.959 96.069C208.889 96.237 208.791 96.433 208.665 96.657C208.553 96.881 208.406 97.091 208.224 97.287C208.042 97.469 207.825 97.63 207.573 97.77C207.335 97.896 207.069 97.959 206.775 97.959C206.495 97.959 206.229 97.91 205.977 97.812C205.739 97.714 205.508 97.609 205.284 97.497C205.046 97.385 204.843 97.301 204.675 97.245C204.507 97.189 204.346 97.161 204.192 97.161C203.954 97.161 203.73 97.259 203.52 97.455C203.324 97.651 203.17 97.861 203.058 98.085L202.05 97.581C202.106 97.413 202.197 97.217 202.323 96.993C202.449 96.769 202.603 96.566 202.785 96.384C202.967 96.188 203.177 96.027 203.415 95.901C203.667 95.761 203.94 95.691 204.234 95.691C204.514 95.691 204.773 95.74 205.011 95.838C205.263 95.936 205.501 96.041 205.725 96.153C205.963 96.265 206.166 96.349 206.334 96.405C206.502 96.461 206.663 96.489 206.817 96.489C207.055 96.489 207.272 96.391 207.468 96.195C207.678 95.999 207.839 95.789 207.951 95.565L208.959 96.069ZM222.262 105.54C222.262 106.408 222.136 107.192 221.884 107.892C221.632 108.592 221.275 109.194 220.813 109.698C220.365 110.202 219.826 110.594 219.196 110.874C218.566 111.14 217.88 111.273 217.138 111.273C216.396 111.273 215.71 111.14 215.08 110.874C214.45 110.594 213.904 110.202 213.442 109.698C212.994 109.194 212.644 108.592 212.392 107.892C212.14 107.192 212.014 106.408 212.014 105.54C212.014 104.686 212.14 103.909 212.392 103.209C212.644 102.495 212.994 101.886 213.442 101.382C213.904 100.878 214.45 100.493 215.08 100.227C215.71 99.947 216.396 99.807 217.138 99.807C217.88 99.807 218.566 99.947 219.196 100.227C219.826 100.493 220.365 100.878 220.813 101.382C221.275 101.886 221.632 102.495 221.884 103.209C222.136 103.909 222.262 104.686 222.262 105.54ZM220.225 105.54C220.225 104.308 219.945 103.335 219.385 102.621C218.839 101.893 218.09 101.529 217.138 101.529C216.186 101.529 215.43 101.893 214.87 102.621C214.324 103.335 214.051 104.308 214.051 105.54C214.051 106.772 214.324 107.752 214.87 108.48C215.43 109.194 216.186 109.551 217.138 109.551C218.09 109.551 218.839 109.194 219.385 108.48C219.945 107.752 220.225 106.772 220.225 105.54Z" fill="#484848"/>
<path d="M43 31H98" stroke="#484848"/>
<path d="M177 8.125V40.625" stroke="white" stroke-width="2" stroke-miterlimit="10"/>
<path d="M152 45.5H170.333C174.017 45.5 177 48.4087 177 52" stroke="white" stroke-width="2" stroke-miterlimit="10"/>
<path d="M202 45.5H183.667C179.983 45.5 177 48.4087 177 52" stroke="white" stroke-width="2" stroke-miterlimit="10"/>
<path d="M177 8.125C177 4.53375 174.017 1.625 170.334 1.625H153.667V39H172.05" stroke="white" stroke-width="2" stroke-miterlimit="10"/>
<path d="M181.95 39H200.333V1.625H183.667C179.983 1.625 177 4.53375 177 8.125" stroke="white" stroke-width="2" stroke-miterlimit="10"/>
</svg>
