<svg width="273" height="157" viewBox="0 0 273 157" fill="none" xmlns="http://www.w3.org/2000/svg">
<path d="M1.62422 30.978C1.62422 27.962 2.15289 25.6393 3.21022 24.01C4.28489 22.3807 5.76689 21.566 7.65622 21.566C9.54555 21.566 11.0189 22.3807 12.0762 24.01C13.1509 25.6393 13.6882 27.962 13.6882 30.978C13.6882 33.994 13.1509 36.3167 12.0762 37.946C11.0189 39.5753 9.54555 40.39 7.65622 40.39C5.76689 40.39 4.28489 39.5753 3.21022 37.946C2.15289 36.3167 1.62422 33.994 1.62422 30.978ZM11.1402 30.978C11.1402 29.99 11.0796 29.054 10.9582 28.17C10.8542 27.286 10.6636 26.5147 10.3862 25.856C10.1262 25.1973 9.77089 24.6773 9.32022 24.296C8.86955 23.8973 8.31489 23.698 7.65622 23.698C6.99755 23.698 6.44289 23.8973 5.99222 24.296C5.54155 24.6773 5.17755 25.1973 4.90022 25.856C4.64022 26.5147 4.44955 27.286 4.32822 28.17C4.22422 29.054 4.17222 29.99 4.17222 30.978C4.17222 31.966 4.22422 32.902 4.32822 33.786C4.44955 34.67 4.64022 35.4413 4.90022 36.1C5.17755 36.7587 5.54155 37.2873 5.99222 37.686C6.44289 38.0673 6.99755 38.258 7.65622 38.258C8.31489 38.258 8.86955 38.0673 9.32022 37.686C9.77089 37.2873 10.1262 36.7587 10.3862 36.1C10.6636 35.4413 10.8542 34.67 10.9582 33.786C11.0796 32.902 11.1402 31.966 11.1402 30.978ZM16.638 32.772C16.638 31.0213 16.8807 29.4787 17.366 28.144C17.8513 26.792 18.536 25.6567 19.42 24.738C20.3213 23.8193 21.4047 23.126 22.67 22.658C23.9527 22.1727 25.3913 21.9213 26.986 21.904L27.168 23.932C26.1453 23.9493 25.2093 24.062 24.36 24.27C23.528 24.478 22.7827 24.8073 22.124 25.258C21.4653 25.7087 20.9107 26.298 20.46 27.026C20.0093 27.7367 19.6713 28.6207 19.446 29.678C19.8967 29.47 20.3993 29.2967 20.954 29.158C21.526 29.0193 22.1153 28.95 22.722 28.95C23.7447 28.95 24.6113 29.106 25.322 29.418C26.0327 29.73 26.6133 30.146 27.064 30.666C27.5147 31.1687 27.8353 31.758 28.026 32.434C28.234 33.0927 28.338 33.786 28.338 34.514C28.338 35.1727 28.2253 35.8487 28 36.542C27.7747 37.2353 27.428 37.868 26.96 38.44C26.5093 39.012 25.9287 39.48 25.218 39.844C24.5073 40.208 23.6667 40.39 22.696 40.39C20.72 40.39 19.212 39.714 18.172 38.362C17.1493 37.01 16.638 35.1467 16.638 32.772ZM22.462 30.926C21.8553 30.926 21.292 30.9867 20.772 31.108C20.252 31.212 19.732 31.3767 19.212 31.602C19.1947 31.7927 19.1773 31.992 19.16 32.2C19.16 32.3907 19.16 32.5813 19.16 32.772C19.16 33.5347 19.212 34.254 19.316 34.93C19.42 35.606 19.602 36.204 19.862 36.724C20.1393 37.2267 20.5033 37.634 20.954 37.946C21.4047 38.2407 21.9767 38.388 22.67 38.388C23.242 38.388 23.7273 38.2667 24.126 38.024C24.5247 37.7813 24.854 37.4693 25.114 37.088C25.374 36.7067 25.556 36.2993 25.66 35.866C25.7813 35.4153 25.842 34.982 25.842 34.566C25.842 33.3873 25.556 32.486 24.984 31.862C24.4293 31.238 23.5887 30.926 22.462 30.926Z" fill="#484848"/>
<path d="M116.708 110C116.47 109.37 116.246 108.754 116.036 108.152C115.826 107.536 115.609 106.913 115.385 106.283H108.791L107.468 110H105.347C105.907 108.46 106.432 107.039 106.922 105.737C107.412 104.421 107.888 103.175 108.35 101.999C108.826 100.823 109.295 99.703 109.757 98.639C110.219 97.561 110.702 96.497 111.206 95.447H113.075C113.579 96.497 114.062 97.561 114.524 98.639C114.986 99.703 115.448 100.823 115.91 101.999C116.386 103.175 116.869 104.421 117.359 105.737C117.849 107.039 118.374 108.46 118.934 110H116.708ZM114.797 104.603C114.349 103.385 113.901 102.209 113.453 101.075C113.019 99.927 112.564 98.828 112.088 97.778C111.598 98.828 111.129 99.927 110.681 101.075C110.247 102.209 109.813 103.385 109.379 104.603H114.797ZM123.592 108.593C124.39 108.593 124.978 108.488 125.356 108.278C125.748 108.068 125.944 107.732 125.944 107.27C125.944 106.794 125.755 106.416 125.377 106.136C124.999 105.856 124.376 105.541 123.508 105.191C123.088 105.023 122.682 104.855 122.29 104.687C121.912 104.505 121.583 104.295 121.303 104.057C121.023 103.819 120.799 103.532 120.631 103.196C120.463 102.86 120.379 102.447 120.379 101.957C120.379 100.991 120.736 100.228 121.45 99.668C122.164 99.094 123.137 98.807 124.369 98.807C124.677 98.807 124.985 98.828 125.293 98.87C125.601 98.898 125.888 98.94 126.154 98.996C126.42 99.038 126.651 99.087 126.847 99.143C127.057 99.199 127.218 99.248 127.33 99.29L126.973 100.97C126.763 100.858 126.434 100.746 125.986 100.634C125.538 100.508 124.999 100.445 124.369 100.445C123.823 100.445 123.347 100.557 122.941 100.781C122.535 100.991 122.332 101.327 122.332 101.789C122.332 102.027 122.374 102.237 122.458 102.419C122.556 102.601 122.696 102.769 122.878 102.923C123.074 103.063 123.312 103.196 123.592 103.322C123.872 103.448 124.208 103.581 124.6 103.721C125.118 103.917 125.58 104.113 125.986 104.309C126.392 104.491 126.735 104.708 127.015 104.96C127.309 105.212 127.533 105.52 127.687 105.884C127.841 106.234 127.918 106.668 127.918 107.186C127.918 108.194 127.54 108.957 126.784 109.475C126.042 109.993 124.978 110.252 123.592 110.252C122.626 110.252 121.87 110.168 121.324 110C120.778 109.846 120.407 109.727 120.211 109.643L120.568 107.963C120.792 108.047 121.149 108.173 121.639 108.341C122.129 108.509 122.78 108.593 123.592 108.593ZM132.964 108.593C133.762 108.593 134.35 108.488 134.728 108.278C135.12 108.068 135.316 107.732 135.316 107.27C135.316 106.794 135.127 106.416 134.749 106.136C134.371 105.856 133.748 105.541 132.88 105.191C132.46 105.023 132.054 104.855 131.662 104.687C131.284 104.505 130.955 104.295 130.675 104.057C130.395 103.819 130.171 103.532 130.003 103.196C129.835 102.86 129.751 102.447 129.751 101.957C129.751 100.991 130.108 100.228 130.822 99.668C131.536 99.094 132.509 98.807 133.741 98.807C134.049 98.807 134.357 98.828 134.665 98.87C134.973 98.898 135.26 98.94 135.526 98.996C135.792 99.038 136.023 99.087 136.219 99.143C136.429 99.199 136.59 99.248 136.702 99.29L136.345 100.97C136.135 100.858 135.806 100.746 135.358 100.634C134.91 100.508 134.371 100.445 133.741 100.445C133.195 100.445 132.719 100.557 132.313 100.781C131.907 100.991 131.704 101.327 131.704 101.789C131.704 102.027 131.746 102.237 131.83 102.419C131.928 102.601 132.068 102.769 132.25 102.923C132.446 103.063 132.684 103.196 132.964 103.322C133.244 103.448 133.58 103.581 133.972 103.721C134.49 103.917 134.952 104.113 135.358 104.309C135.764 104.491 136.107 104.708 136.387 104.96C136.681 105.212 136.905 105.52 137.059 105.884C137.213 106.234 137.29 106.668 137.29 107.186C137.29 108.194 136.912 108.957 136.156 109.475C135.414 109.993 134.35 110.252 132.964 110.252C131.998 110.252 131.242 110.168 130.696 110C130.15 109.846 129.779 109.727 129.583 109.643L129.94 107.963C130.164 108.047 130.521 108.173 131.011 108.341C131.501 108.509 132.152 108.593 132.964 108.593ZM141.748 110H139.795V99.08H141.748V110ZM140.761 97.106C140.411 97.106 140.11 96.994 139.858 96.77C139.62 96.532 139.501 96.217 139.501 95.825C139.501 95.433 139.62 95.125 139.858 94.901C140.11 94.663 140.411 94.544 140.761 94.544C141.111 94.544 141.405 94.663 141.643 94.901C141.895 95.125 142.021 95.433 142.021 95.825C142.021 96.217 141.895 96.532 141.643 96.77C141.405 96.994 141.111 97.106 140.761 97.106ZM147.647 108.593C148.445 108.593 149.033 108.488 149.411 108.278C149.803 108.068 149.999 107.732 149.999 107.27C149.999 106.794 149.81 106.416 149.432 106.136C149.054 105.856 148.431 105.541 147.563 105.191C147.143 105.023 146.737 104.855 146.345 104.687C145.967 104.505 145.638 104.295 145.358 104.057C145.078 103.819 144.854 103.532 144.686 103.196C144.518 102.86 144.434 102.447 144.434 101.957C144.434 100.991 144.791 100.228 145.505 99.668C146.219 99.094 147.192 98.807 148.424 98.807C148.732 98.807 149.04 98.828 149.348 98.87C149.656 98.898 149.943 98.94 150.209 98.996C150.475 99.038 150.706 99.087 150.902 99.143C151.112 99.199 151.273 99.248 151.385 99.29L151.028 100.97C150.818 100.858 150.489 100.746 150.041 100.634C149.593 100.508 149.054 100.445 148.424 100.445C147.878 100.445 147.402 100.557 146.996 100.781C146.59 100.991 146.387 101.327 146.387 101.789C146.387 102.027 146.429 102.237 146.513 102.419C146.611 102.601 146.751 102.769 146.933 102.923C147.129 103.063 147.367 103.196 147.647 103.322C147.927 103.448 148.263 103.581 148.655 103.721C149.173 103.917 149.635 104.113 150.041 104.309C150.447 104.491 150.79 104.708 151.07 104.96C151.364 105.212 151.588 105.52 151.742 105.884C151.896 106.234 151.973 106.668 151.973 107.186C151.973 108.194 151.595 108.957 150.839 109.475C150.097 109.993 149.033 110.252 147.647 110.252C146.681 110.252 145.925 110.168 145.379 110C144.833 109.846 144.462 109.727 144.266 109.643L144.623 107.963C144.847 108.047 145.204 108.173 145.694 108.341C146.184 108.509 146.835 108.593 147.647 108.593ZM156.305 99.08H160.442V100.718H156.305V105.758C156.305 106.304 156.347 106.759 156.431 107.123C156.515 107.473 156.641 107.753 156.809 107.963C156.977 108.159 157.187 108.299 157.439 108.383C157.691 108.467 157.985 108.509 158.321 108.509C158.909 108.509 159.378 108.446 159.728 108.32C160.092 108.18 160.344 108.082 160.484 108.026L160.862 109.643C160.666 109.741 160.323 109.86 159.833 110C159.343 110.154 158.783 110.231 158.153 110.231C157.411 110.231 156.795 110.14 156.305 109.958C155.829 109.762 155.444 109.475 155.15 109.097C154.856 108.719 154.646 108.257 154.52 107.711C154.408 107.151 154.352 106.507 154.352 105.779V96.035L156.305 95.699V99.08ZM162.113 104.561C162.113 103.595 162.253 102.755 162.533 102.041C162.813 101.313 163.184 100.711 163.646 100.235C164.108 99.759 164.64 99.402 165.242 99.164C165.844 98.926 166.46 98.807 167.09 98.807C168.56 98.807 169.687 99.269 170.471 100.193C171.255 101.103 171.647 102.496 171.647 104.372C171.647 104.456 171.647 104.568 171.647 104.708C171.647 104.834 171.64 104.953 171.626 105.065H164.15C164.234 106.199 164.563 107.06 165.137 107.648C165.711 108.236 166.607 108.53 167.825 108.53C168.511 108.53 169.085 108.474 169.547 108.362C170.023 108.236 170.38 108.117 170.618 108.005L170.891 109.643C170.653 109.769 170.233 109.902 169.631 110.042C169.043 110.182 168.371 110.252 167.615 110.252C166.663 110.252 165.837 110.112 165.137 109.832C164.451 109.538 163.884 109.139 163.436 108.635C162.988 108.131 162.652 107.536 162.428 106.85C162.218 106.15 162.113 105.387 162.113 104.561ZM169.61 103.49C169.624 102.608 169.4 101.887 168.938 101.327C168.49 100.753 167.867 100.466 167.069 100.466C166.621 100.466 166.222 100.557 165.872 100.739C165.536 100.907 165.249 101.131 165.011 101.411C164.773 101.691 164.584 102.013 164.444 102.377C164.318 102.741 164.234 103.112 164.192 103.49H169.61ZM167.048 93.851L169.904 96.854L169.085 97.778L167.048 95.93L165.011 97.778L164.192 96.854L167.048 93.851ZM174.453 99.395C174.901 99.283 175.496 99.164 176.238 99.038C176.98 98.912 177.834 98.849 178.8 98.849C179.668 98.849 180.389 98.975 180.963 99.227C181.537 99.465 181.992 99.808 182.328 100.256C182.678 100.69 182.923 101.215 183.063 101.831C183.203 102.447 183.273 103.126 183.273 103.868V110H181.32V104.288C181.32 103.616 181.271 103.042 181.173 102.566C181.089 102.09 180.942 101.705 180.732 101.411C180.522 101.117 180.242 100.907 179.892 100.781C179.542 100.641 179.108 100.571 178.59 100.571C178.38 100.571 178.163 100.578 177.939 100.592C177.715 100.606 177.498 100.627 177.288 100.655C177.092 100.669 176.91 100.69 176.742 100.718C176.588 100.746 176.476 100.767 176.406 100.781V110H174.453V99.395ZM191.258 110.252C190.376 110.252 189.599 110.112 188.927 109.832C188.269 109.552 187.709 109.16 187.247 108.656C186.799 108.152 186.463 107.557 186.239 106.871C186.015 106.171 185.903 105.401 185.903 104.561C185.903 103.721 186.022 102.951 186.26 102.251C186.512 101.551 186.862 100.949 187.31 100.445C187.758 99.927 188.304 99.528 188.948 99.248C189.606 98.954 190.334 98.807 191.132 98.807C191.622 98.807 192.112 98.849 192.602 98.933C193.092 99.017 193.561 99.15 194.009 99.332L193.568 100.991C193.274 100.851 192.931 100.739 192.539 100.655C192.161 100.571 191.755 100.529 191.321 100.529C190.229 100.529 189.389 100.872 188.801 101.558C188.227 102.244 187.94 103.245 187.94 104.561C187.94 105.149 188.003 105.688 188.129 106.178C188.269 106.668 188.479 107.088 188.759 107.438C189.053 107.788 189.424 108.061 189.872 108.257C190.32 108.439 190.866 108.53 191.51 108.53C192.028 108.53 192.497 108.481 192.917 108.383C193.337 108.285 193.666 108.18 193.904 108.068L194.177 109.706C194.065 109.776 193.904 109.846 193.694 109.916C193.484 109.972 193.246 110.021 192.98 110.063C192.714 110.119 192.427 110.161 192.119 110.189C191.825 110.231 191.538 110.252 191.258 110.252ZM198.226 110H196.273V99.08H198.226V110ZM197.239 97.106C196.889 97.106 196.588 96.994 196.336 96.77C196.098 96.532 195.979 96.217 195.979 95.825C195.979 95.433 196.098 95.125 196.336 94.901C196.588 94.663 196.889 94.544 197.239 94.544C197.589 94.544 197.883 94.663 198.121 94.901C198.373 95.125 198.499 95.433 198.499 95.825C198.499 96.217 198.373 96.532 198.121 96.77C197.883 96.994 197.589 97.106 197.239 97.106ZM205.281 108.593C205.743 108.593 206.149 108.586 206.499 108.572C206.863 108.544 207.164 108.502 207.402 108.446V105.191C207.262 105.121 207.031 105.065 206.709 105.023C206.401 104.967 206.023 104.939 205.575 104.939C205.281 104.939 204.966 104.96 204.63 105.002C204.308 105.044 204.007 105.135 203.727 105.275C203.461 105.401 203.237 105.583 203.055 105.821C202.873 106.045 202.782 106.346 202.782 106.724C202.782 107.424 203.006 107.914 203.454 108.194C203.902 108.46 204.511 108.593 205.281 108.593ZM205.113 98.807C205.897 98.807 206.555 98.912 207.087 99.122C207.633 99.318 208.067 99.605 208.389 99.983C208.725 100.347 208.963 100.788 209.103 101.306C209.243 101.81 209.313 102.37 209.313 102.986V109.811C209.145 109.839 208.907 109.881 208.599 109.937C208.305 109.979 207.969 110.021 207.591 110.063C207.213 110.105 206.8 110.14 206.352 110.168C205.918 110.21 205.484 110.231 205.05 110.231C204.434 110.231 203.867 110.168 203.349 110.042C202.831 109.916 202.383 109.72 202.005 109.454C201.627 109.174 201.333 108.81 201.123 108.362C200.913 107.914 200.808 107.375 200.808 106.745C200.808 106.143 200.927 105.625 201.165 105.191C201.417 104.757 201.753 104.407 202.173 104.141C202.593 103.875 203.083 103.679 203.643 103.553C204.203 103.427 204.791 103.364 205.407 103.364C205.603 103.364 205.806 103.378 206.016 103.406C206.226 103.42 206.422 103.448 206.604 103.49C206.8 103.518 206.968 103.546 207.108 103.574C207.248 103.602 207.346 103.623 207.402 103.637V103.091C207.402 102.769 207.367 102.454 207.297 102.146C207.227 101.824 207.101 101.544 206.919 101.306C206.737 101.054 206.485 100.858 206.163 100.718C205.855 100.564 205.449 100.487 204.945 100.487C204.301 100.487 203.734 100.536 203.244 100.634C202.768 100.718 202.411 100.809 202.173 100.907L201.942 99.29C202.194 99.178 202.614 99.073 203.202 98.975C203.79 98.863 204.427 98.807 205.113 98.807ZM221.407 95.3C223.451 95.3 225.019 95.692 226.111 96.476C227.217 97.246 227.77 98.401 227.77 99.941C227.77 100.781 227.616 101.502 227.308 102.104C227.014 102.692 226.58 103.175 226.006 103.553C225.446 103.917 224.76 104.183 223.948 104.351C223.136 104.519 222.219 104.603 221.197 104.603H219.58V110H217.543V95.657C218.117 95.517 218.754 95.426 219.454 95.384C220.168 95.328 220.819 95.3 221.407 95.3ZM221.575 97.085C220.707 97.085 220.042 97.106 219.58 97.148V102.86H221.113C221.813 102.86 222.443 102.818 223.003 102.734C223.563 102.636 224.032 102.482 224.41 102.272C224.802 102.048 225.103 101.747 225.313 101.369C225.523 100.991 225.628 100.508 225.628 99.92C225.628 99.36 225.516 98.898 225.292 98.534C225.082 98.17 224.788 97.883 224.41 97.673C224.046 97.449 223.619 97.295 223.129 97.211C222.639 97.127 222.121 97.085 221.575 97.085ZM239.381 104.54C239.381 105.408 239.255 106.192 239.003 106.892C238.751 107.592 238.394 108.194 237.932 108.698C237.484 109.202 236.945 109.594 236.315 109.874C235.685 110.14 234.999 110.273 234.257 110.273C233.515 110.273 232.829 110.14 232.199 109.874C231.569 109.594 231.023 109.202 230.561 108.698C230.113 108.194 229.763 107.592 229.511 106.892C229.259 106.192 229.133 105.408 229.133 104.54C229.133 103.686 229.259 102.909 229.511 102.209C229.763 101.495 230.113 100.886 230.561 100.382C231.023 99.878 231.569 99.493 232.199 99.227C232.829 98.947 233.515 98.807 234.257 98.807C234.999 98.807 235.685 98.947 236.315 99.227C236.945 99.493 237.484 99.878 237.932 100.382C238.394 100.886 238.751 101.495 239.003 102.209C239.255 102.909 239.381 103.686 239.381 104.54ZM237.344 104.54C237.344 103.308 237.064 102.335 236.504 101.621C235.958 100.893 235.209 100.529 234.257 100.529C233.305 100.529 232.549 100.893 231.989 101.621C231.443 102.335 231.17 103.308 231.17 104.54C231.17 105.772 231.443 106.752 231.989 107.48C232.549 108.194 233.305 108.551 234.257 108.551C235.209 108.551 235.958 108.194 236.504 107.48C237.064 106.752 237.344 105.772 237.344 104.54ZM236.798 94.943L233.837 97.82L232.85 96.938L235.538 93.704L236.798 94.943ZM244.67 108.593C245.468 108.593 246.056 108.488 246.434 108.278C246.826 108.068 247.022 107.732 247.022 107.27C247.022 106.794 246.833 106.416 246.455 106.136C246.077 105.856 245.454 105.541 244.586 105.191C244.166 105.023 243.76 104.855 243.368 104.687C242.99 104.505 242.661 104.295 242.381 104.057C242.101 103.819 241.877 103.532 241.709 103.196C241.541 102.86 241.457 102.447 241.457 101.957C241.457 100.991 241.814 100.228 242.528 99.668C243.242 99.094 244.215 98.807 245.447 98.807C245.755 98.807 246.063 98.828 246.371 98.87C246.679 98.898 246.966 98.94 247.232 98.996C247.498 99.038 247.729 99.087 247.925 99.143C248.135 99.199 248.296 99.248 248.408 99.29L248.051 100.97C247.841 100.858 247.512 100.746 247.064 100.634C246.616 100.508 246.077 100.445 245.447 100.445C244.901 100.445 244.425 100.557 244.019 100.781C243.613 100.991 243.41 101.327 243.41 101.789C243.41 102.027 243.452 102.237 243.536 102.419C243.634 102.601 243.774 102.769 243.956 102.923C244.152 103.063 244.39 103.196 244.67 103.322C244.95 103.448 245.286 103.581 245.678 103.721C246.196 103.917 246.658 104.113 247.064 104.309C247.47 104.491 247.813 104.708 248.093 104.96C248.387 105.212 248.611 105.52 248.765 105.884C248.919 106.234 248.996 106.668 248.996 107.186C248.996 108.194 248.618 108.957 247.862 109.475C247.12 109.993 246.056 110.252 244.67 110.252C243.704 110.252 242.948 110.168 242.402 110C241.856 109.846 241.485 109.727 241.289 109.643L241.646 107.963C241.87 108.047 242.227 108.173 242.717 108.341C243.207 108.509 243.858 108.593 244.67 108.593ZM161.084 119.447C160.552 120.987 160.041 122.415 159.551 123.731C159.075 125.033 158.606 126.272 158.144 127.448C157.682 128.624 157.22 129.751 156.758 130.829C156.31 131.893 155.848 132.95 155.372 134H153.461C152.985 132.95 152.516 131.893 152.054 130.829C151.606 129.751 151.144 128.624 150.668 127.448C150.206 126.272 149.73 125.033 149.24 123.731C148.75 122.415 148.246 120.987 147.728 119.447H149.975C150.731 121.659 151.473 123.787 152.201 125.831C152.929 127.875 153.678 129.793 154.448 131.585C155.218 129.807 155.967 127.896 156.695 125.852C157.423 123.794 158.158 121.659 158.9 119.447H161.084ZM161.426 128.561C161.426 127.595 161.566 126.755 161.846 126.041C162.126 125.313 162.497 124.711 162.959 124.235C163.421 123.759 163.953 123.402 164.555 123.164C165.157 122.926 165.773 122.807 166.403 122.807C167.873 122.807 169 123.269 169.784 124.193C170.568 125.103 170.96 126.496 170.96 128.372C170.96 128.456 170.96 128.568 170.96 128.708C170.96 128.834 170.953 128.953 170.939 129.065H163.463C163.547 130.199 163.876 131.06 164.45 131.648C165.024 132.236 165.92 132.53 167.138 132.53C167.824 132.53 168.398 132.474 168.86 132.362C169.336 132.236 169.693 132.117 169.931 132.005L170.204 133.643C169.966 133.769 169.546 133.902 168.944 134.042C168.356 134.182 167.684 134.252 166.928 134.252C165.976 134.252 165.15 134.112 164.45 133.832C163.764 133.538 163.197 133.139 162.749 132.635C162.301 132.131 161.965 131.536 161.741 130.85C161.531 130.15 161.426 129.387 161.426 128.561ZM168.923 127.49C168.937 126.608 168.713 125.887 168.251 125.327C167.803 124.753 167.18 124.466 166.382 124.466C165.934 124.466 165.535 124.557 165.185 124.739C164.849 124.907 164.562 125.131 164.324 125.411C164.086 125.691 163.897 126.013 163.757 126.377C163.631 126.741 163.547 127.112 163.505 127.49H168.923ZM173.766 123.395C174.214 123.283 174.809 123.164 175.551 123.038C176.293 122.912 177.147 122.849 178.113 122.849C178.981 122.849 179.702 122.975 180.276 123.227C180.85 123.465 181.305 123.808 181.641 124.256C181.991 124.69 182.236 125.215 182.376 125.831C182.516 126.447 182.586 127.126 182.586 127.868V134H180.633V128.288C180.633 127.616 180.584 127.042 180.486 126.566C180.402 126.09 180.255 125.705 180.045 125.411C179.835 125.117 179.555 124.907 179.205 124.781C178.855 124.641 178.421 124.571 177.903 124.571C177.693 124.571 177.476 124.578 177.252 124.592C177.028 124.606 176.811 124.627 176.601 124.655C176.405 124.669 176.223 124.69 176.055 124.718C175.901 124.746 175.789 124.767 175.719 124.781V134H173.766V123.395ZM192.881 125.39C192.643 125.194 192.3 125.005 191.852 124.823C191.404 124.641 190.914 124.55 190.382 124.55C189.822 124.55 189.339 124.655 188.933 124.865C188.541 125.061 188.219 125.341 187.967 125.705C187.715 126.055 187.533 126.475 187.421 126.965C187.309 127.455 187.253 127.98 187.253 128.54C187.253 129.814 187.568 130.801 188.198 131.501C188.828 132.187 189.668 132.53 190.718 132.53C191.25 132.53 191.691 132.509 192.041 132.467C192.405 132.411 192.685 132.355 192.881 132.299V125.39ZM192.881 118.04L194.834 117.704V133.685C194.386 133.811 193.812 133.937 193.112 134.063C192.412 134.189 191.607 134.252 190.697 134.252C189.857 134.252 189.101 134.119 188.429 133.853C187.757 133.587 187.183 133.209 186.707 132.719C186.231 132.229 185.86 131.634 185.594 130.934C185.342 130.22 185.216 129.422 185.216 128.54C185.216 127.7 185.321 126.93 185.531 126.23C185.755 125.53 186.077 124.928 186.497 124.424C186.917 123.92 187.428 123.528 188.03 123.248C188.646 122.968 189.346 122.828 190.13 122.828C190.76 122.828 191.313 122.912 191.789 123.08C192.279 123.248 192.643 123.409 192.881 123.563V118.04ZM201.887 132.593C202.349 132.593 202.755 132.586 203.105 132.572C203.469 132.544 203.77 132.502 204.008 132.446V129.191C203.868 129.121 203.637 129.065 203.315 129.023C203.007 128.967 202.629 128.939 202.181 128.939C201.887 128.939 201.572 128.96 201.236 129.002C200.914 129.044 200.613 129.135 200.333 129.275C200.067 129.401 199.843 129.583 199.661 129.821C199.479 130.045 199.388 130.346 199.388 130.724C199.388 131.424 199.612 131.914 200.06 132.194C200.508 132.46 201.117 132.593 201.887 132.593ZM201.719 122.807C202.503 122.807 203.161 122.912 203.693 123.122C204.239 123.318 204.673 123.605 204.995 123.983C205.331 124.347 205.569 124.788 205.709 125.306C205.849 125.81 205.919 126.37 205.919 126.986V133.811C205.751 133.839 205.513 133.881 205.205 133.937C204.911 133.979 204.575 134.021 204.197 134.063C203.819 134.105 203.406 134.14 202.958 134.168C202.524 134.21 202.09 134.231 201.656 134.231C201.04 134.231 200.473 134.168 199.955 134.042C199.437 133.916 198.989 133.72 198.611 133.454C198.233 133.174 197.939 132.81 197.729 132.362C197.519 131.914 197.414 131.375 197.414 130.745C197.414 130.143 197.533 129.625 197.771 129.191C198.023 128.757 198.359 128.407 198.779 128.141C199.199 127.875 199.689 127.679 200.249 127.553C200.809 127.427 201.397 127.364 202.013 127.364C202.209 127.364 202.412 127.378 202.622 127.406C202.832 127.42 203.028 127.448 203.21 127.49C203.406 127.518 203.574 127.546 203.714 127.574C203.854 127.602 203.952 127.623 204.008 127.637V127.091C204.008 126.769 203.973 126.454 203.903 126.146C203.833 125.824 203.707 125.544 203.525 125.306C203.343 125.054 203.091 124.858 202.769 124.718C202.461 124.564 202.055 124.487 201.551 124.487C200.907 124.487 200.34 124.536 199.85 124.634C199.374 124.718 199.017 124.809 198.779 124.907L198.548 123.29C198.8 123.178 199.22 123.073 199.808 122.975C200.396 122.863 201.033 122.807 201.719 122.807Z" fill="#484848"/>
<path d="M42 30H97" stroke="#484848"/>
<path d="M194.75 33.6664H213.875V4.11084H175.625V8.29084" stroke="white" stroke-width="2" stroke-miterlimit="10"/>
<path d="M194.813 14.624H207.563" stroke="white" stroke-width="2" stroke-miterlimit="10"/>
<path d="M194.75 23.1108H207.564" stroke="white" stroke-width="2" stroke-miterlimit="10"/>
<path d="M182 25.2217H156.5" stroke="white" stroke-width="2" stroke-miterlimit="10"/>
<path d="M174.35 33.7085H156.5" stroke="white" stroke-width="2" stroke-miterlimit="10"/>
<path d="M162.875 44.2221H188.375V14.6665H150.125V52.6665L156.5 44.2221" stroke="white" stroke-width="2" stroke-miterlimit="10"/>
</svg>
